<?xml version="1.0" encoding="utf-8" standalone="no"?>
<!DOCTYPE svg PUBLIC "-//W3C//DTD SVG 1.1//EN"
  "http://www.w3.org/Graphics/SVG/1.1/DTD/svg11.dtd">
<svg xmlns:xlink="http://www.w3.org/1999/xlink" width="324pt" height="432pt" viewBox="0 0 324 432" xmlns="http://www.w3.org/2000/svg" version="1.1">
 <metadata>
  <rdf:RDF xmlns:dc="http://purl.org/dc/elements/1.1/" xmlns:cc="http://creativecommons.org/ns#" xmlns:rdf="http://www.w3.org/1999/02/22-rdf-syntax-ns#">
   <cc:Work>
    <dc:type rdf:resource="http://purl.org/dc/dcmitype/StillImage"/>
    <dc:date>2025-02-26T23:13:28.486980</dc:date>
    <dc:format>image/svg+xml</dc:format>
    <dc:creator>
     <cc:Agent>
      <dc:title>Matplotlib v3.10.0, https://matplotlib.org/</dc:title>
     </cc:Agent>
    </dc:creator>
   </cc:Work>
  </rdf:RDF>
 </metadata>
 <defs>
  <style type="text/css">*{stroke-linejoin: round; stroke-linecap: butt}</style>
 </defs>
 <g id="figure_1">
  <g id="patch_1">
   <path d="M 0 432 
L 324 432 
L 324 0 
L 0 0 
z
" style="fill: #ffffff"/>
  </g>
  <g id="axes_1">
   <g id="patch_2">
    <path d="M 40.5 384.48 
L 291.6 384.48 
L 291.6 51.84 
L 40.5 51.84 
z
" style="fill: #ffffff"/>
   </g>
   <g id="FillBetweenPolyCollection_1">
    <path d="M 40.5 77.055686 
L 40.5 80.716234 
L 45.547364 82.233179 
L 50.594727 83.750124 
L 55.642091 85.267069 
L 60.689455 86.784015 
L 65.736818 88.30096 
L 70.784182 89.817711 
L 75.831545 91.334442 
L 80.878909 92.851173 
L 85.926273 94.365948 
L 90.973636 95.874452 
L 96.021 97.384021 
L 101.068364 98.899804 
L 106.115727 100.415587 
L 111.163091 101.931212 
L 116.210455 103.446833 
L 121.257818 104.962453 
L 126.305182 106.477715 
L 131.352545 107.993916 
L 136.399909 109.507269 
L 141.447273 111.017574 
L 146.494636 112.52787 
L 151.542 114.041697 
L 156.589364 115.558818 
L 161.636727 117.068117 
L 166.684091 118.577415 
L 171.731455 120.086706 
L 176.778818 121.595907 
L 181.826182 123.111203 
L 186.873545 124.639187 
L 191.920909 126.16717 
L 196.968273 127.695154 
L 202.015636 129.214606 
L 207.063 130.751683 
L 212.110364 132.277438 
L 217.157727 133.791057 
L 222.205091 135.308653 
L 227.252455 136.832689 
L 232.299818 138.355996 
L 237.347182 139.876551 
L 242.394545 141.398515 
L 247.441909 142.930549 
L 252.489273 144.45527 
L 257.536636 145.985769 
L 262.584 147.499589 
L 267.631364 149.019574 
L 272.678727 150.544624 
L 277.726091 152.076441 
L 282.773455 153.609956 
L 287.820818 155.143163 
L 292.868182 156.680979 
L 297.915545 158.229589 
L 302.962909 159.771564 
L 308.010273 161.30349 
L 313.057636 162.845905 
L 318.105 164.387182 
L 323.152364 165.945722 
L 328.199727 167.500385 
L 333.247091 169.043589 
L 338.294455 170.58225 
L 343.341818 172.118155 
L 348.389182 173.675426 
L 353.436545 175.235298 
L 358.483909 176.778668 
L 363.531273 178.338979 
L 368.578636 179.900817 
L 373.626 181.460295 
L 378.673364 183.022801 
L 383.720727 184.580026 
L 388.768091 186.144543 
L 393.815455 187.70712 
L 398.862818 189.266855 
L 403.910182 190.827884 
L 408.957545 192.405159 
L 414.004909 193.973792 
L 419.052273 195.540851 
L 424.099636 197.115171 
L 429.147 198.683651 
L 434.194364 200.250958 
L 439.241727 201.818264 
L 444.289091 203.393268 
L 449.336455 204.953348 
L 454.383818 206.520183 
L 459.431182 208.08749 
L 464.478545 209.658521 
L 469.525909 211.22957 
L 474.573273 212.800491 
L 479.620636 214.365715 
L 484.668 215.925188 
L 489.715364 217.490528 
L 494.762727 219.054384 
L 499.810091 220.624416 
L 504.857455 222.196402 
L 509.904818 223.76614 
L 514.952182 225.331698 
L 519.999545 226.897256 
L 525.046909 228.462814 
L 530.094273 230.044585 
L 535.141636 231.629943 
L 540.189 233.203971 
L 540.189 230.288578 
L 540.189 230.288578 
L 535.141636 228.772446 
L 530.094273 227.261349 
L 525.046909 225.753698 
L 519.999545 224.225951 
L 514.952182 222.706943 
L 509.904818 221.191027 
L 504.857455 219.681831 
L 499.810091 218.170961 
L 494.762727 216.654739 
L 489.715364 215.145039 
L 484.668 213.642371 
L 479.620636 212.11872 
L 474.573273 210.597701 
L 469.525909 209.081928 
L 464.478545 207.543362 
L 459.431182 206.027044 
L 454.383818 204.509033 
L 449.336455 202.976747 
L 444.289091 201.470927 
L 439.241727 199.945776 
L 434.194364 198.424815 
L 429.147 196.906812 
L 424.099636 195.401902 
L 419.052273 193.877367 
L 414.004909 192.362808 
L 408.957545 190.84458 
L 403.910182 189.315171 
L 398.862818 187.78078 
L 393.815455 186.249818 
L 388.768091 184.721699 
L 383.720727 183.204503 
L 378.673364 181.681638 
L 373.626 180.131497 
L 368.578636 178.577974 
L 363.531273 177.035902 
L 358.483909 175.49732 
L 353.436545 173.938901 
L 348.389182 172.39846 
L 343.341818 170.85687 
L 338.294455 169.332552 
L 333.247091 167.79239 
L 328.199727 166.249935 
L 323.152364 164.705758 
L 318.105 163.1521 
L 313.057636 161.59891 
L 308.010273 160.03341 
L 302.962909 158.49218 
L 297.915545 156.944845 
L 292.868182 155.388549 
L 287.820818 153.832676 
L 282.773455 152.281463 
L 277.726091 150.727575 
L 272.678727 149.170493 
L 267.631364 147.606791 
L 262.584 146.047931 
L 257.536636 144.481629 
L 252.489273 142.91738 
L 247.441909 141.367999 
L 242.394545 139.810394 
L 237.347182 138.244642 
L 232.299818 136.677542 
L 227.252455 135.113036 
L 222.205091 133.541151 
L 217.157727 131.972821 
L 212.110364 130.404491 
L 207.063 128.836197 
L 202.015636 127.26807 
L 196.968273 125.693959 
L 191.920909 124.133892 
L 186.873545 122.563687 
L 181.826182 120.9959 
L 176.778818 119.427179 
L 171.731455 117.860663 
L 166.684091 116.290872 
L 161.636727 114.721491 
L 156.589364 113.155211 
L 151.542 111.588836 
L 146.494636 110.022461 
L 141.447273 108.456085 
L 136.399909 106.88971 
L 131.352545 105.323335 
L 126.305182 103.749037 
L 121.257818 102.177049 
L 116.210455 100.607268 
L 111.163091 99.033027 
L 106.115727 97.458786 
L 101.068364 95.884545 
L 96.021 94.310304 
L 90.973636 92.736063 
L 85.926273 91.161821 
L 80.878909 89.587729 
L 75.831545 88.013807 
L 70.784182 86.447752 
L 65.736818 84.884489 
L 60.689455 83.32128 
L 55.642091 81.758071 
L 50.594727 80.194862 
L 45.547364 78.627197 
L 40.5 77.055686 
z
" clip-path="url(#p75d3a035bf)" style="fill-opacity: 0.15"/>
   </g>
   <g id="matplotlib.axis_1">
    <g id="xtick_1">
     <g id="line2d_1">
      <defs>
       <path id="mf106818ad5" d="M 0 0 
L 0 3.5 
" style="stroke: #000000; stroke-width: 0.8"/>
      </defs>
      <g>
       <use xlink:href="#mf106818ad5" x="40.5" y="384.48" style="stroke: #000000; stroke-width: 0.8"/>
      </g>
     </g>
     <g id="text_1">
      <!-- 0 -->
      <g transform="translate(37.31875 399.078438) scale(0.1 -0.1)">
       <defs>
        <path id="DejaVuSans-30" d="M 2034 4250 
Q 1547 4250 1301 3770 
Q 1056 3291 1056 2328 
Q 1056 1369 1301 889 
Q 1547 409 2034 409 
Q 2525 409 2770 889 
Q 3016 1369 3016 2328 
Q 3016 3291 2770 3770 
Q 2525 4250 2034 4250 
z
M 2034 4750 
Q 2819 4750 3233 4129 
Q 3647 3509 3647 2328 
Q 3647 1150 3233 529 
Q 2819 -91 2034 -91 
Q 1250 -91 836 529 
Q 422 1150 422 2328 
Q 422 3509 836 4129 
Q 1250 4750 2034 4750 
z
" transform="scale(0.015625)"/>
       </defs>
       <use xlink:href="#DejaVuSans-30"/>
      </g>
     </g>
    </g>
    <g id="xtick_2">
     <g id="line2d_2">
      <g>
       <use xlink:href="#mf106818ad5" x="90.72" y="384.48" style="stroke: #000000; stroke-width: 0.8"/>
      </g>
     </g>
     <g id="text_2">
      <!-- 200 -->
      <g transform="translate(81.17625 399.078438) scale(0.1 -0.1)">
       <defs>
        <path id="DejaVuSans-32" d="M 1228 531 
L 3431 531 
L 3431 0 
L 469 0 
L 469 531 
Q 828 903 1448 1529 
Q 2069 2156 2228 2338 
Q 2531 2678 2651 2914 
Q 2772 3150 2772 3378 
Q 2772 3750 2511 3984 
Q 2250 4219 1831 4219 
Q 1534 4219 1204 4116 
Q 875 4013 500 3803 
L 500 4441 
Q 881 4594 1212 4672 
Q 1544 4750 1819 4750 
Q 2544 4750 2975 4387 
Q 3406 4025 3406 3419 
Q 3406 3131 3298 2873 
Q 3191 2616 2906 2266 
Q 2828 2175 2409 1742 
Q 1991 1309 1228 531 
z
" transform="scale(0.015625)"/>
       </defs>
       <use xlink:href="#DejaVuSans-32"/>
       <use xlink:href="#DejaVuSans-30" transform="translate(63.623047 0)"/>
       <use xlink:href="#DejaVuSans-30" transform="translate(127.246094 0)"/>
      </g>
     </g>
    </g>
    <g id="xtick_3">
     <g id="line2d_3">
      <g>
       <use xlink:href="#mf106818ad5" x="140.94" y="384.48" style="stroke: #000000; stroke-width: 0.8"/>
      </g>
     </g>
     <g id="text_3">
      <!-- 400 -->
      <g transform="translate(131.39625 399.078438) scale(0.1 -0.1)">
       <defs>
        <path id="DejaVuSans-34" d="M 2419 4116 
L 825 1625 
L 2419 1625 
L 2419 4116 
z
M 2253 4666 
L 3047 4666 
L 3047 1625 
L 3713 1625 
L 3713 1100 
L 3047 1100 
L 3047 0 
L 2419 0 
L 2419 1100 
L 313 1100 
L 313 1709 
L 2253 4666 
z
" transform="scale(0.015625)"/>
       </defs>
       <use xlink:href="#DejaVuSans-34"/>
       <use xlink:href="#DejaVuSans-30" transform="translate(63.623047 0)"/>
       <use xlink:href="#DejaVuSans-30" transform="translate(127.246094 0)"/>
      </g>
     </g>
    </g>
    <g id="xtick_4">
     <g id="line2d_4">
      <g>
       <use xlink:href="#mf106818ad5" x="191.16" y="384.48" style="stroke: #000000; stroke-width: 0.8"/>
      </g>
     </g>
     <g id="text_4">
      <!-- 600 -->
      <g transform="translate(181.61625 399.078438) scale(0.1 -0.1)">
       <defs>
        <path id="DejaVuSans-36" d="M 2113 2584 
Q 1688 2584 1439 2293 
Q 1191 2003 1191 1497 
Q 1191 994 1439 701 
Q 1688 409 2113 409 
Q 2538 409 2786 701 
Q 3034 994 3034 1497 
Q 3034 2003 2786 2293 
Q 2538 2584 2113 2584 
z
M 3366 4563 
L 3366 3988 
Q 3128 4100 2886 4159 
Q 2644 4219 2406 4219 
Q 1781 4219 1451 3797 
Q 1122 3375 1075 2522 
Q 1259 2794 1537 2939 
Q 1816 3084 2150 3084 
Q 2853 3084 3261 2657 
Q 3669 2231 3669 1497 
Q 3669 778 3244 343 
Q 2819 -91 2113 -91 
Q 1303 -91 875 529 
Q 447 1150 447 2328 
Q 447 3434 972 4092 
Q 1497 4750 2381 4750 
Q 2619 4750 2861 4703 
Q 3103 4656 3366 4563 
z
" transform="scale(0.015625)"/>
       </defs>
       <use xlink:href="#DejaVuSans-36"/>
       <use xlink:href="#DejaVuSans-30" transform="translate(63.623047 0)"/>
       <use xlink:href="#DejaVuSans-30" transform="translate(127.246094 0)"/>
      </g>
     </g>
    </g>
    <g id="xtick_5">
     <g id="line2d_5">
      <g>
       <use xlink:href="#mf106818ad5" x="241.38" y="384.48" style="stroke: #000000; stroke-width: 0.8"/>
      </g>
     </g>
     <g id="text_5">
      <!-- 800 -->
      <g transform="translate(231.83625 399.078438) scale(0.1 -0.1)">
       <defs>
        <path id="DejaVuSans-38" d="M 2034 2216 
Q 1584 2216 1326 1975 
Q 1069 1734 1069 1313 
Q 1069 891 1326 650 
Q 1584 409 2034 409 
Q 2484 409 2743 651 
Q 3003 894 3003 1313 
Q 3003 1734 2745 1975 
Q 2488 2216 2034 2216 
z
M 1403 2484 
Q 997 2584 770 2862 
Q 544 3141 544 3541 
Q 544 4100 942 4425 
Q 1341 4750 2034 4750 
Q 2731 4750 3128 4425 
Q 3525 4100 3525 3541 
Q 3525 3141 3298 2862 
Q 3072 2584 2669 2484 
Q 3125 2378 3379 2068 
Q 3634 1759 3634 1313 
Q 3634 634 3220 271 
Q 2806 -91 2034 -91 
Q 1263 -91 848 271 
Q 434 634 434 1313 
Q 434 1759 690 2068 
Q 947 2378 1403 2484 
z
M 1172 3481 
Q 1172 3119 1398 2916 
Q 1625 2713 2034 2713 
Q 2441 2713 2670 2916 
Q 2900 3119 2900 3481 
Q 2900 3844 2670 4047 
Q 2441 4250 2034 4250 
Q 1625 4250 1398 4047 
Q 1172 3844 1172 3481 
z
" transform="scale(0.015625)"/>
       </defs>
       <use xlink:href="#DejaVuSans-38"/>
       <use xlink:href="#DejaVuSans-30" transform="translate(63.623047 0)"/>
       <use xlink:href="#DejaVuSans-30" transform="translate(127.246094 0)"/>
      </g>
     </g>
    </g>
    <g id="xtick_6">
     <g id="line2d_6">
      <g>
       <use xlink:href="#mf106818ad5" x="291.6" y="384.48" style="stroke: #000000; stroke-width: 0.8"/>
      </g>
     </g>
     <g id="text_6">
      <!-- 1000 -->
      <g transform="translate(278.875 399.078438) scale(0.1 -0.1)">
       <defs>
        <path id="DejaVuSans-31" d="M 794 531 
L 1825 531 
L 1825 4091 
L 703 3866 
L 703 4441 
L 1819 4666 
L 2450 4666 
L 2450 531 
L 3481 531 
L 3481 0 
L 794 0 
L 794 531 
z
" transform="scale(0.015625)"/>
       </defs>
       <use xlink:href="#DejaVuSans-31"/>
       <use xlink:href="#DejaVuSans-30" transform="translate(63.623047 0)"/>
       <use xlink:href="#DejaVuSans-30" transform="translate(127.246094 0)"/>
       <use xlink:href="#DejaVuSans-30" transform="translate(190.869141 0)"/>
      </g>
     </g>
    </g>
    <g id="text_7">
     <!-- Tiempo, s -->
     <g transform="translate(141.8 412.756563) scale(0.1 -0.1)">
      <defs>
       <path id="DejaVuSans-54" d="M -19 4666 
L 3928 4666 
L 3928 4134 
L 2272 4134 
L 2272 0 
L 1638 0 
L 1638 4134 
L -19 4134 
L -19 4666 
z
" transform="scale(0.015625)"/>
       <path id="DejaVuSans-69" d="M 603 3500 
L 1178 3500 
L 1178 0 
L 603 0 
L 603 3500 
z
M 603 4863 
L 1178 4863 
L 1178 4134 
L 603 4134 
L 603 4863 
z
" transform="scale(0.015625)"/>
       <path id="DejaVuSans-65" d="M 3597 1894 
L 3597 1613 
L 953 1613 
Q 991 1019 1311 708 
Q 1631 397 2203 397 
Q 2534 397 2845 478 
Q 3156 559 3463 722 
L 3463 178 
Q 3153 47 2828 -22 
Q 2503 -91 2169 -91 
Q 1331 -91 842 396 
Q 353 884 353 1716 
Q 353 2575 817 3079 
Q 1281 3584 2069 3584 
Q 2775 3584 3186 3129 
Q 3597 2675 3597 1894 
z
M 3022 2063 
Q 3016 2534 2758 2815 
Q 2500 3097 2075 3097 
Q 1594 3097 1305 2825 
Q 1016 2553 972 2059 
L 3022 2063 
z
" transform="scale(0.015625)"/>
       <path id="DejaVuSans-6d" d="M 3328 2828 
Q 3544 3216 3844 3400 
Q 4144 3584 4550 3584 
Q 5097 3584 5394 3201 
Q 5691 2819 5691 2113 
L 5691 0 
L 5113 0 
L 5113 2094 
Q 5113 2597 4934 2840 
Q 4756 3084 4391 3084 
Q 3944 3084 3684 2787 
Q 3425 2491 3425 1978 
L 3425 0 
L 2847 0 
L 2847 2094 
Q 2847 2600 2669 2842 
Q 2491 3084 2119 3084 
Q 1678 3084 1418 2786 
Q 1159 2488 1159 1978 
L 1159 0 
L 581 0 
L 581 3500 
L 1159 3500 
L 1159 2956 
Q 1356 3278 1631 3431 
Q 1906 3584 2284 3584 
Q 2666 3584 2933 3390 
Q 3200 3197 3328 2828 
z
" transform="scale(0.015625)"/>
       <path id="DejaVuSans-70" d="M 1159 525 
L 1159 -1331 
L 581 -1331 
L 581 3500 
L 1159 3500 
L 1159 2969 
Q 1341 3281 1617 3432 
Q 1894 3584 2278 3584 
Q 2916 3584 3314 3078 
Q 3713 2572 3713 1747 
Q 3713 922 3314 415 
Q 2916 -91 2278 -91 
Q 1894 -91 1617 61 
Q 1341 213 1159 525 
z
M 3116 1747 
Q 3116 2381 2855 2742 
Q 2594 3103 2138 3103 
Q 1681 3103 1420 2742 
Q 1159 2381 1159 1747 
Q 1159 1113 1420 752 
Q 1681 391 2138 391 
Q 2594 391 2855 752 
Q 3116 1113 3116 1747 
z
" transform="scale(0.015625)"/>
       <path id="DejaVuSans-6f" d="M 1959 3097 
Q 1497 3097 1228 2736 
Q 959 2375 959 1747 
Q 959 1119 1226 758 
Q 1494 397 1959 397 
Q 2419 397 2687 759 
Q 2956 1122 2956 1747 
Q 2956 2369 2687 2733 
Q 2419 3097 1959 3097 
z
M 1959 3584 
Q 2709 3584 3137 3096 
Q 3566 2609 3566 1747 
Q 3566 888 3137 398 
Q 2709 -91 1959 -91 
Q 1206 -91 779 398 
Q 353 888 353 1747 
Q 353 2609 779 3096 
Q 1206 3584 1959 3584 
z
" transform="scale(0.015625)"/>
       <path id="DejaVuSans-2c" d="M 750 794 
L 1409 794 
L 1409 256 
L 897 -744 
L 494 -744 
L 750 256 
L 750 794 
z
" transform="scale(0.015625)"/>
       <path id="DejaVuSans-20" transform="scale(0.015625)"/>
       <path id="DejaVuSans-73" d="M 2834 3397 
L 2834 2853 
Q 2591 2978 2328 3040 
Q 2066 3103 1784 3103 
Q 1356 3103 1142 2972 
Q 928 2841 928 2578 
Q 928 2378 1081 2264 
Q 1234 2150 1697 2047 
L 1894 2003 
Q 2506 1872 2764 1633 
Q 3022 1394 3022 966 
Q 3022 478 2636 193 
Q 2250 -91 1575 -91 
Q 1294 -91 989 -36 
Q 684 19 347 128 
L 347 722 
Q 666 556 975 473 
Q 1284 391 1588 391 
Q 1994 391 2212 530 
Q 2431 669 2431 922 
Q 2431 1156 2273 1281 
Q 2116 1406 1581 1522 
L 1381 1569 
Q 847 1681 609 1914 
Q 372 2147 372 2553 
Q 372 3047 722 3315 
Q 1072 3584 1716 3584 
Q 2034 3584 2315 3537 
Q 2597 3491 2834 3397 
z
" transform="scale(0.015625)"/>
      </defs>
      <use xlink:href="#DejaVuSans-54"/>
      <use xlink:href="#DejaVuSans-69" transform="translate(57.958984 0)"/>
      <use xlink:href="#DejaVuSans-65" transform="translate(85.742188 0)"/>
      <use xlink:href="#DejaVuSans-6d" transform="translate(147.265625 0)"/>
      <use xlink:href="#DejaVuSans-70" transform="translate(244.677734 0)"/>
      <use xlink:href="#DejaVuSans-6f" transform="translate(308.154297 0)"/>
      <use xlink:href="#DejaVuSans-2c" transform="translate(369.335938 0)"/>
      <use xlink:href="#DejaVuSans-20" transform="translate(401.123047 0)"/>
      <use xlink:href="#DejaVuSans-73" transform="translate(432.910156 0)"/>
     </g>
    </g>
   </g>
   <g id="matplotlib.axis_2">
    <g id="ytick_1">
     <g id="line2d_7">
      <defs>
       <path id="m9624ca3987" d="M 0 0 
L -3.5 0 
" style="stroke: #000000; stroke-width: 0.8"/>
      </defs>
      <g>
       <use xlink:href="#m9624ca3987" x="40.5" y="384.48" style="stroke: #000000; stroke-width: 0.8"/>
      </g>
     </g>
     <g id="text_8">
      <!-- 3.2 -->
      <g transform="translate(17.596875 388.279219) scale(0.1 -0.1)">
       <defs>
        <path id="DejaVuSans-33" d="M 2597 2516 
Q 3050 2419 3304 2112 
Q 3559 1806 3559 1356 
Q 3559 666 3084 287 
Q 2609 -91 1734 -91 
Q 1441 -91 1130 -33 
Q 819 25 488 141 
L 488 750 
Q 750 597 1062 519 
Q 1375 441 1716 441 
Q 2309 441 2620 675 
Q 2931 909 2931 1356 
Q 2931 1769 2642 2001 
Q 2353 2234 1838 2234 
L 1294 2234 
L 1294 2753 
L 1863 2753 
Q 2328 2753 2575 2939 
Q 2822 3125 2822 3475 
Q 2822 3834 2567 4026 
Q 2313 4219 1838 4219 
Q 1578 4219 1281 4162 
Q 984 4106 628 3988 
L 628 4550 
Q 988 4650 1302 4700 
Q 1616 4750 1894 4750 
Q 2613 4750 3031 4423 
Q 3450 4097 3450 3541 
Q 3450 3153 3228 2886 
Q 3006 2619 2597 2516 
z
" transform="scale(0.015625)"/>
        <path id="DejaVuSans-2e" d="M 684 794 
L 1344 794 
L 1344 0 
L 684 0 
L 684 794 
z
" transform="scale(0.015625)"/>
       </defs>
       <use xlink:href="#DejaVuSans-33"/>
       <use xlink:href="#DejaVuSans-2e" transform="translate(63.623047 0)"/>
       <use xlink:href="#DejaVuSans-32" transform="translate(95.410156 0)"/>
      </g>
     </g>
    </g>
    <g id="ytick_2">
     <g id="line2d_8">
      <g>
       <use xlink:href="#m9624ca3987" x="40.5" y="317.952" style="stroke: #000000; stroke-width: 0.8"/>
      </g>
     </g>
     <g id="text_9">
      <!-- 3.4 -->
      <g transform="translate(17.596875 321.751219) scale(0.1 -0.1)">
       <use xlink:href="#DejaVuSans-33"/>
       <use xlink:href="#DejaVuSans-2e" transform="translate(63.623047 0)"/>
       <use xlink:href="#DejaVuSans-34" transform="translate(95.410156 0)"/>
      </g>
     </g>
    </g>
    <g id="ytick_3">
     <g id="line2d_9">
      <g>
       <use xlink:href="#m9624ca3987" x="40.5" y="251.424" style="stroke: #000000; stroke-width: 0.8"/>
      </g>
     </g>
     <g id="text_10">
      <!-- 3.6 -->
      <g transform="translate(17.596875 255.223219) scale(0.1 -0.1)">
       <use xlink:href="#DejaVuSans-33"/>
       <use xlink:href="#DejaVuSans-2e" transform="translate(63.623047 0)"/>
       <use xlink:href="#DejaVuSans-36" transform="translate(95.410156 0)"/>
      </g>
     </g>
    </g>
    <g id="ytick_4">
     <g id="line2d_10">
      <g>
       <use xlink:href="#m9624ca3987" x="40.5" y="184.896" style="stroke: #000000; stroke-width: 0.8"/>
      </g>
     </g>
     <g id="text_11">
      <!-- 3.8 -->
      <g transform="translate(17.596875 188.695219) scale(0.1 -0.1)">
       <use xlink:href="#DejaVuSans-33"/>
       <use xlink:href="#DejaVuSans-2e" transform="translate(63.623047 0)"/>
       <use xlink:href="#DejaVuSans-38" transform="translate(95.410156 0)"/>
      </g>
     </g>
    </g>
    <g id="ytick_5">
     <g id="line2d_11">
      <g>
       <use xlink:href="#m9624ca3987" x="40.5" y="118.368" style="stroke: #000000; stroke-width: 0.8"/>
      </g>
     </g>
     <g id="text_12">
      <!-- 4.0 -->
      <g transform="translate(17.596875 122.167219) scale(0.1 -0.1)">
       <use xlink:href="#DejaVuSans-34"/>
       <use xlink:href="#DejaVuSans-2e" transform="translate(63.623047 0)"/>
       <use xlink:href="#DejaVuSans-30" transform="translate(95.410156 0)"/>
      </g>
     </g>
    </g>
    <g id="ytick_6">
     <g id="line2d_12">
      <g>
       <use xlink:href="#m9624ca3987" x="40.5" y="51.84" style="stroke: #000000; stroke-width: 0.8"/>
      </g>
     </g>
     <g id="text_13">
      <!-- 4.2 -->
      <g transform="translate(17.596875 55.639219) scale(0.1 -0.1)">
       <use xlink:href="#DejaVuSans-34"/>
       <use xlink:href="#DejaVuSans-2e" transform="translate(63.623047 0)"/>
       <use xlink:href="#DejaVuSans-32" transform="translate(95.410156 0)"/>
      </g>
     </g>
    </g>
    <g id="text_14">
     <!-- Temperatura medida, $^{\circ} C$ -->
     <g transform="translate(11.496875 280.21) rotate(-90) scale(0.1 -0.1)">
      <defs>
       <path id="DejaVuSans-72" d="M 2631 2963 
Q 2534 3019 2420 3045 
Q 2306 3072 2169 3072 
Q 1681 3072 1420 2755 
Q 1159 2438 1159 1844 
L 1159 0 
L 581 0 
L 581 3500 
L 1159 3500 
L 1159 2956 
Q 1341 3275 1631 3429 
Q 1922 3584 2338 3584 
Q 2397 3584 2469 3576 
Q 2541 3569 2628 3553 
L 2631 2963 
z
" transform="scale(0.015625)"/>
       <path id="DejaVuSans-61" d="M 2194 1759 
Q 1497 1759 1228 1600 
Q 959 1441 959 1056 
Q 959 750 1161 570 
Q 1363 391 1709 391 
Q 2188 391 2477 730 
Q 2766 1069 2766 1631 
L 2766 1759 
L 2194 1759 
z
M 3341 1997 
L 3341 0 
L 2766 0 
L 2766 531 
Q 2569 213 2275 61 
Q 1981 -91 1556 -91 
Q 1019 -91 701 211 
Q 384 513 384 1019 
Q 384 1609 779 1909 
Q 1175 2209 1959 2209 
L 2766 2209 
L 2766 2266 
Q 2766 2663 2505 2880 
Q 2244 3097 1772 3097 
Q 1472 3097 1187 3025 
Q 903 2953 641 2809 
L 641 3341 
Q 956 3463 1253 3523 
Q 1550 3584 1831 3584 
Q 2591 3584 2966 3190 
Q 3341 2797 3341 1997 
z
" transform="scale(0.015625)"/>
       <path id="DejaVuSans-74" d="M 1172 4494 
L 1172 3500 
L 2356 3500 
L 2356 3053 
L 1172 3053 
L 1172 1153 
Q 1172 725 1289 603 
Q 1406 481 1766 481 
L 2356 481 
L 2356 0 
L 1766 0 
Q 1100 0 847 248 
Q 594 497 594 1153 
L 594 3053 
L 172 3053 
L 172 3500 
L 594 3500 
L 594 4494 
L 1172 4494 
z
" transform="scale(0.015625)"/>
       <path id="DejaVuSans-75" d="M 544 1381 
L 544 3500 
L 1119 3500 
L 1119 1403 
Q 1119 906 1312 657 
Q 1506 409 1894 409 
Q 2359 409 2629 706 
Q 2900 1003 2900 1516 
L 2900 3500 
L 3475 3500 
L 3475 0 
L 2900 0 
L 2900 538 
Q 2691 219 2414 64 
Q 2138 -91 1772 -91 
Q 1169 -91 856 284 
Q 544 659 544 1381 
z
M 1991 3584 
L 1991 3584 
z
" transform="scale(0.015625)"/>
       <path id="DejaVuSans-64" d="M 2906 2969 
L 2906 4863 
L 3481 4863 
L 3481 0 
L 2906 0 
L 2906 525 
Q 2725 213 2448 61 
Q 2172 -91 1784 -91 
Q 1150 -91 751 415 
Q 353 922 353 1747 
Q 353 2572 751 3078 
Q 1150 3584 1784 3584 
Q 2172 3584 2448 3432 
Q 2725 3281 2906 2969 
z
M 947 1747 
Q 947 1113 1208 752 
Q 1469 391 1925 391 
Q 2381 391 2643 752 
Q 2906 1113 2906 1747 
Q 2906 2381 2643 2742 
Q 2381 3103 1925 3103 
Q 1469 3103 1208 2742 
Q 947 2381 947 1747 
z
" transform="scale(0.015625)"/>
       <path id="DejaVuSans-2218" d="M 2000 2619 
Q 1750 2619 1578 2445 
Q 1406 2272 1406 2022 
Q 1406 1775 1578 1605 
Q 1750 1435 2000 1435 
Q 2250 1435 2422 1605 
Q 2594 1775 2594 2022 
Q 2594 2269 2420 2444 
Q 2247 2619 2000 2619 
z
M 2000 3022 
Q 2200 3022 2384 2945 
Q 2569 2869 2703 2725 
Q 2847 2585 2919 2406 
Q 2991 2228 2991 2022 
Q 2991 1610 2702 1324 
Q 2413 1038 1994 1038 
Q 1572 1038 1290 1319 
Q 1009 1600 1009 2022 
Q 1009 2441 1296 2731 
Q 1584 3022 2000 3022 
z
" transform="scale(0.015625)"/>
       <path id="DejaVuSans-Oblique-43" d="M 4447 4306 
L 4319 3641 
Q 4019 3944 3683 4091 
Q 3347 4238 2956 4238 
Q 2422 4238 2017 3981 
Q 1613 3725 1319 3200 
Q 1131 2863 1032 2486 
Q 934 2109 934 1728 
Q 934 1091 1264 756 
Q 1594 422 2222 422 
Q 2656 422 3056 561 
Q 3456 700 3834 978 
L 3688 231 
Q 3316 72 2936 -9 
Q 2556 -91 2175 -91 
Q 1278 -91 773 396 
Q 269 884 269 1753 
Q 269 2309 461 2846 
Q 653 3384 1013 3828 
Q 1394 4300 1883 4525 
Q 2372 4750 3022 4750 
Q 3422 4750 3780 4639 
Q 4138 4528 4447 4306 
z
" transform="scale(0.015625)"/>
      </defs>
      <use xlink:href="#DejaVuSans-54" transform="translate(0 0.015625)"/>
      <use xlink:href="#DejaVuSans-65" transform="translate(61.083984 0.015625)"/>
      <use xlink:href="#DejaVuSans-6d" transform="translate(122.607422 0.015625)"/>
      <use xlink:href="#DejaVuSans-70" transform="translate(220.019531 0.015625)"/>
      <use xlink:href="#DejaVuSans-65" transform="translate(283.496094 0.015625)"/>
      <use xlink:href="#DejaVuSans-72" transform="translate(345.019531 0.015625)"/>
      <use xlink:href="#DejaVuSans-61" transform="translate(386.132812 0.015625)"/>
      <use xlink:href="#DejaVuSans-74" transform="translate(447.412109 0.015625)"/>
      <use xlink:href="#DejaVuSans-75" transform="translate(486.621094 0.015625)"/>
      <use xlink:href="#DejaVuSans-72" transform="translate(550 0.015625)"/>
      <use xlink:href="#DejaVuSans-61" transform="translate(591.113281 0.015625)"/>
      <use xlink:href="#DejaVuSans-20" transform="translate(652.392578 0.015625)"/>
      <use xlink:href="#DejaVuSans-6d" transform="translate(684.179688 0.015625)"/>
      <use xlink:href="#DejaVuSans-65" transform="translate(781.591797 0.015625)"/>
      <use xlink:href="#DejaVuSans-64" transform="translate(843.115234 0.015625)"/>
      <use xlink:href="#DejaVuSans-69" transform="translate(906.591797 0.015625)"/>
      <use xlink:href="#DejaVuSans-64" transform="translate(934.375 0.015625)"/>
      <use xlink:href="#DejaVuSans-61" transform="translate(997.851562 0.015625)"/>
      <use xlink:href="#DejaVuSans-2c" transform="translate(1059.130859 0.015625)"/>
      <use xlink:href="#DejaVuSans-20" transform="translate(1090.917969 0.015625)"/>
      <use xlink:href="#DejaVuSans-2218" transform="translate(1123.662109 38.296875) scale(0.7)"/>
      <use xlink:href="#DejaVuSans-Oblique-43" transform="translate(1170.214844 0.015625)"/>
     </g>
    </g>
   </g>
   <g id="line2d_13">
    <path d="M 40.5 78.698603 
L 45.547364 80.244771 
L 50.594727 81.790938 
L 55.642091 83.337106 
L 60.689455 84.883273 
L 65.736818 86.429441 
L 70.784182 87.975608 
L 75.831545 89.521776 
L 80.878909 91.067943 
L 85.926273 92.614111 
L 90.973636 94.160278 
L 96.021 95.706446 
L 101.068364 97.252613 
L 106.115727 98.798781 
L 111.163091 100.344948 
L 116.210455 101.891116 
L 121.257818 103.437283 
L 126.305182 104.983451 
L 131.352545 106.529618 
L 136.399909 108.075786 
L 141.447273 109.621953 
L 146.494636 111.168121 
L 151.542 112.714288 
L 156.589364 114.260456 
L 161.636727 115.806623 
L 166.684091 117.352791 
L 171.731455 118.898958 
L 176.778818 120.445126 
L 181.826182 121.991293 
L 186.873545 123.537461 
L 191.920909 125.083628 
L 196.968273 126.629796 
L 202.015636 128.175963 
L 207.063 129.722131 
L 212.110364 131.268298 
L 217.157727 132.814466 
L 222.205091 134.360633 
L 227.252455 135.906801 
L 232.299818 137.452968 
L 237.347182 138.999136 
L 242.394545 140.545303 
L 247.441909 142.091471 
L 252.489273 143.637638 
L 257.536636 145.183806 
L 262.584 146.729973 
L 267.631364 148.276141 
L 272.678727 149.822308 
L 277.726091 151.368476 
L 282.773455 152.914643 
L 287.820818 154.460811 
L 292.868182 156.006978 
L 297.915545 157.553146 
L 302.962909 159.099313 
L 308.010273 160.645481 
L 313.057636 162.191648 
L 318.105 163.737816 
L 323.152364 165.283983 
L 325 165.849973 
" clip-path="url(#p75d3a035bf)" style="fill: none; stroke: #000000; stroke-linecap: square"/>
   </g>
   <g id="patch_3">
    <path d="M 40.5 384.48 
L 40.5 51.84 
" style="fill: none; stroke: #000000; stroke-width: 0.8; stroke-linejoin: miter; stroke-linecap: square"/>
   </g>
   <g id="patch_4">
    <path d="M 291.6 384.48 
L 291.6 51.84 
" style="fill: none; stroke: #000000; stroke-width: 0.8; stroke-linejoin: miter; stroke-linecap: square"/>
   </g>
   <g id="patch_5">
    <path d="M 40.5 384.48 
L 291.6 384.48 
" style="fill: none; stroke: #000000; stroke-width: 0.8; stroke-linejoin: miter; stroke-linecap: square"/>
   </g>
   <g id="patch_6">
    <path d="M 40.5 51.84 
L 291.6 51.84 
" style="fill: none; stroke: #000000; stroke-width: 0.8; stroke-linejoin: miter; stroke-linecap: square"/>
   </g>
   <g id="PathCollection_1">
    <defs>
     <path id="m3ab6d84e35" d="M -3 3 
L 3 -3 
M -3 -3 
L 3 3 
" style="stroke: #b5828c; stroke-width: 1.5"/>
    </defs>
    <g clip-path="url(#p75d3a035bf)">
     <use xlink:href="#m3ab6d84e35" x="40.5" y="62.92848" style="fill: #b5828c; stroke: #b5828c; stroke-width: 1.5"/>
     <use xlink:href="#m3ab6d84e35" x="53.055" y="70.755665" style="fill: #b5828c; stroke: #b5828c; stroke-width: 1.5"/>
     <use xlink:href="#m3ab6d84e35" x="65.61" y="77.152785" style="fill: #b5828c; stroke: #b5828c; stroke-width: 1.5"/>
     <use xlink:href="#m3ab6d84e35" x="78.165" y="83.675347" style="fill: #b5828c; stroke: #b5828c; stroke-width: 1.5"/>
     <use xlink:href="#m3ab6d84e35" x="90.72" y="90.328369" style="fill: #b5828c; stroke: #b5828c; stroke-width: 1.5"/>
     <use xlink:href="#m3ab6d84e35" x="103.275" y="95.40694" style="fill: #b5828c; stroke: #b5828c; stroke-width: 1.5"/>
     <use xlink:href="#m3ab6d84e35" x="115.83" y="102.301281" style="fill: #b5828c; stroke: #b5828c; stroke-width: 1.5"/>
     <use xlink:href="#m3ab6d84e35" x="128.385" y="107.567459" style="fill: #b5828c; stroke: #b5828c; stroke-width: 1.5"/>
     <use xlink:href="#m3ab6d84e35" x="140.94" y="111.721804" style="fill: #b5828c; stroke: #b5828c; stroke-width: 1.5"/>
     <use xlink:href="#m3ab6d84e35" x="153.495" y="116.53404" style="fill: #b5828c; stroke: #b5828c; stroke-width: 1.5"/>
     <use xlink:href="#m3ab6d84e35" x="166.05" y="120.189461" style="fill: #b5828c; stroke: #b5828c; stroke-width: 1.5"/>
     <use xlink:href="#m3ab6d84e35" x="178.605" y="123.885499" style="fill: #b5828c; stroke: #b5828c; stroke-width: 1.5"/>
     <use xlink:href="#m3ab6d84e35" x="191.16" y="128.250098" style="fill: #b5828c; stroke: #b5828c; stroke-width: 1.5"/>
     <use xlink:href="#m3ab6d84e35" x="203.715" y="132.037311" style="fill: #b5828c; stroke: #b5828c; stroke-width: 1.5"/>
     <use xlink:href="#m3ab6d84e35" x="216.27" y="136.510924" style="fill: #b5828c; stroke: #b5828c; stroke-width: 1.5"/>
     <use xlink:href="#m3ab6d84e35" x="228.825" y="141.045522" style="fill: #b5828c; stroke: #b5828c; stroke-width: 1.5"/>
     <use xlink:href="#m3ab6d84e35" x="241.38" y="144.322789" style="fill: #b5828c; stroke: #b5828c; stroke-width: 1.5"/>
     <use xlink:href="#m3ab6d84e35" x="253.935" y="148.298614" style="fill: #b5828c; stroke: #b5828c; stroke-width: 1.5"/>
     <use xlink:href="#m3ab6d84e35" x="266.49" y="152.322534" style="fill: #b5828c; stroke: #b5828c; stroke-width: 1.5"/>
     <use xlink:href="#m3ab6d84e35" x="279.045" y="155.713389" style="fill: #b5828c; stroke: #b5828c; stroke-width: 1.5"/>
     <use xlink:href="#m3ab6d84e35" x="291.6" y="160.519417" style="fill: #b5828c; stroke: #b5828c; stroke-width: 1.5"/>
     <use xlink:href="#m3ab6d84e35" x="304.155" y="163.99531" style="fill: #b5828c; stroke: #b5828c; stroke-width: 1.5"/>
     <use xlink:href="#m3ab6d84e35" x="316.71" y="167.507909" style="fill: #b5828c; stroke: #b5828c; stroke-width: 1.5"/>
     <use xlink:href="#m3ab6d84e35" x="329.265" y="171.772583" style="fill: #b5828c; stroke: #b5828c; stroke-width: 1.5"/>
     <use xlink:href="#m3ab6d84e35" x="341.82" y="173.9256" style="fill: #b5828c; stroke: #b5828c; stroke-width: 1.5"/>
     <use xlink:href="#m3ab6d84e35" x="354.375" y="177.545222" style="fill: #b5828c; stroke: #b5828c; stroke-width: 1.5"/>
     <use xlink:href="#m3ab6d84e35" x="366.93" y="181.204665" style="fill: #b5828c; stroke: #b5828c; stroke-width: 1.5"/>
     <use xlink:href="#m3ab6d84e35" x="379.485" y="184.161485" style="fill: #b5828c; stroke: #b5828c; stroke-width: 1.5"/>
     <use xlink:href="#m3ab6d84e35" x="392.04" y="187.144823" style="fill: #b5828c; stroke: #b5828c; stroke-width: 1.5"/>
     <use xlink:href="#m3ab6d84e35" x="404.595" y="190.912021" style="fill: #b5828c; stroke: #b5828c; stroke-width: 1.5"/>
     <use xlink:href="#m3ab6d84e35" x="417.15" y="194.722372" style="fill: #b5828c; stroke: #b5828c; stroke-width: 1.5"/>
     <use xlink:href="#m3ab6d84e35" x="429.705" y="198.576876" style="fill: #b5828c; stroke: #b5828c; stroke-width: 1.5"/>
     <use xlink:href="#m3ab6d84e35" x="442.26" y="201.692964" style="fill: #b5828c; stroke: #b5828c; stroke-width: 1.5"/>
     <use xlink:href="#m3ab6d84e35" x="454.815" y="204.83852" style="fill: #b5828c; stroke: #b5828c; stroke-width: 1.5"/>
     <use xlink:href="#m3ab6d84e35" x="467.37" y="207.217362" style="fill: #b5828c; stroke: #b5828c; stroke-width: 1.5"/>
     <use xlink:href="#m3ab6d84e35" x="479.925" y="210.415848" style="fill: #b5828c; stroke: #b5828c; stroke-width: 1.5"/>
     <use xlink:href="#m3ab6d84e35" x="492.48" y="212.835058" style="fill: #b5828c; stroke: #b5828c; stroke-width: 1.5"/>
     <use xlink:href="#m3ab6d84e35" x="505.035" y="216.088287" style="fill: #b5828c; stroke: #b5828c; stroke-width: 1.5"/>
     <use xlink:href="#m3ab6d84e35" x="517.59" y="218.54926" style="fill: #b5828c; stroke: #b5828c; stroke-width: 1.5"/>
     <use xlink:href="#m3ab6d84e35" x="530.145" y="221.028576" style="fill: #b5828c; stroke: #b5828c; stroke-width: 1.5"/>
    </g>
   </g>
   <g id="text_15">
    <!-- $r^2=$ 0.98917 $K=$0.000231 -->
    <g transform="translate(84.51 45.84) scale(0.12 -0.12)">
     <defs>
      <path id="DejaVuSans-Oblique-72" d="M 2853 2969 
Q 2766 3016 2653 3041 
Q 2541 3066 2413 3066 
Q 1953 3066 1609 2717 
Q 1266 2369 1153 1784 
L 800 0 
L 225 0 
L 909 3500 
L 1484 3500 
L 1375 2956 
Q 1603 3259 1920 3421 
Q 2238 3584 2597 3584 
Q 2691 3584 2781 3573 
Q 2872 3563 2963 3538 
L 2853 2969 
z
" transform="scale(0.015625)"/>
      <path id="DejaVuSans-3d" d="M 678 2906 
L 4684 2906 
L 4684 2381 
L 678 2381 
L 678 2906 
z
M 678 1631 
L 4684 1631 
L 4684 1100 
L 678 1100 
L 678 1631 
z
" transform="scale(0.015625)"/>
      <path id="DejaVuSans-39" d="M 703 97 
L 703 672 
Q 941 559 1184 500 
Q 1428 441 1663 441 
Q 2288 441 2617 861 
Q 2947 1281 2994 2138 
Q 2813 1869 2534 1725 
Q 2256 1581 1919 1581 
Q 1219 1581 811 2004 
Q 403 2428 403 3163 
Q 403 3881 828 4315 
Q 1253 4750 1959 4750 
Q 2769 4750 3195 4129 
Q 3622 3509 3622 2328 
Q 3622 1225 3098 567 
Q 2575 -91 1691 -91 
Q 1453 -91 1209 -44 
Q 966 3 703 97 
z
M 1959 2075 
Q 2384 2075 2632 2365 
Q 2881 2656 2881 3163 
Q 2881 3666 2632 3958 
Q 2384 4250 1959 4250 
Q 1534 4250 1286 3958 
Q 1038 3666 1038 3163 
Q 1038 2656 1286 2365 
Q 1534 2075 1959 2075 
z
" transform="scale(0.015625)"/>
      <path id="DejaVuSans-37" d="M 525 4666 
L 3525 4666 
L 3525 4397 
L 1831 0 
L 1172 0 
L 2766 4134 
L 525 4134 
L 525 4666 
z
" transform="scale(0.015625)"/>
      <path id="DejaVuSans-Oblique-4b" d="M 1081 4666 
L 1716 4666 
L 1331 2700 
L 3781 4666 
L 4622 4666 
L 1850 2438 
L 3878 0 
L 3109 0 
L 1247 2272 
L 806 0 
L 172 0 
L 1081 4666 
z
" transform="scale(0.015625)"/>
     </defs>
     <use xlink:href="#DejaVuSans-Oblique-72" transform="translate(0 0.765625)"/>
     <use xlink:href="#DejaVuSans-32" transform="translate(45.763177 39.046875) scale(0.7)"/>
     <use xlink:href="#DejaVuSans-3d" transform="translate(112.516107 0.765625)"/>
     <use xlink:href="#DejaVuSans-20" transform="translate(215.787591 0.765625)"/>
     <use xlink:href="#DejaVuSans-30" transform="translate(247.574701 0.765625)"/>
     <use xlink:href="#DejaVuSans-2e" transform="translate(311.197747 0.765625)"/>
     <use xlink:href="#DejaVuSans-39" transform="translate(342.984857 0.765625)"/>
     <use xlink:href="#DejaVuSans-38" transform="translate(406.607904 0.765625)"/>
     <use xlink:href="#DejaVuSans-39" transform="translate(470.230951 0.765625)"/>
     <use xlink:href="#DejaVuSans-31" transform="translate(533.853997 0.765625)"/>
     <use xlink:href="#DejaVuSans-37" transform="translate(597.477044 0.765625)"/>
     <use xlink:href="#DejaVuSans-20" transform="translate(661.100091 0.765625)"/>
     <use xlink:href="#DejaVuSans-Oblique-4b" transform="translate(692.887201 0.765625)"/>
     <use xlink:href="#DejaVuSans-3d" transform="translate(777.945794 0.765625)"/>
     <use xlink:href="#DejaVuSans-30" transform="translate(881.217279 0.765625)"/>
     <use xlink:href="#DejaVuSans-2e" transform="translate(944.840326 0.765625)"/>
     <use xlink:href="#DejaVuSans-30" transform="translate(976.627435 0.765625)"/>
     <use xlink:href="#DejaVuSans-30" transform="translate(1040.250482 0.765625)"/>
     <use xlink:href="#DejaVuSans-30" transform="translate(1103.873529 0.765625)"/>
     <use xlink:href="#DejaVuSans-32" transform="translate(1167.496576 0.765625)"/>
     <use xlink:href="#DejaVuSans-33" transform="translate(1231.119622 0.765625)"/>
     <use xlink:href="#DejaVuSans-31" transform="translate(1294.742669 0.765625)"/>
    </g>
   </g>
  </g>
 </g>
 <defs>
  <clipPath id="p75d3a035bf">
   <rect x="40.5" y="51.84" width="251.1" height="332.64"/>
  </clipPath>
 </defs>
</svg>
