<?xml version="1.0" encoding="utf-8" standalone="no"?>
<!DOCTYPE svg PUBLIC "-//W3C//DTD SVG 1.1//EN"
  "http://www.w3.org/Graphics/SVG/1.1/DTD/svg11.dtd">
<svg xmlns:xlink="http://www.w3.org/1999/xlink" width="1080pt" height="432pt" viewBox="0 0 1080 432" xmlns="http://www.w3.org/2000/svg" version="1.1">
 <metadata>
  <rdf:RDF xmlns:dc="http://purl.org/dc/elements/1.1/" xmlns:cc="http://creativecommons.org/ns#" xmlns:rdf="http://www.w3.org/1999/02/22-rdf-syntax-ns#">
   <cc:Work>
    <dc:type rdf:resource="http://purl.org/dc/dcmitype/StillImage"/>
    <dc:date>2025-02-26T22:28:22.145341</dc:date>
    <dc:format>image/svg+xml</dc:format>
    <dc:creator>
     <cc:Agent>
      <dc:title>Matplotlib v3.10.0, https://matplotlib.org/</dc:title>
     </cc:Agent>
    </dc:creator>
   </cc:Work>
  </rdf:RDF>
 </metadata>
 <defs>
  <style type="text/css">*{stroke-linejoin: round; stroke-linecap: butt}</style>
 </defs>
 <g id="figure_1">
  <g id="patch_1">
   <path d="M 0 432 
L 1080 432 
L 1080 0 
L 0 0 
z
" style="fill: #ffffff"/>
  </g>
  <g id="axes_1">
   <g id="patch_2">
    <path d="M 135 384.48 
L 381.176471 384.48 
L 381.176471 51.84 
L 135 51.84 
z
" style="fill: #ffffff"/>
   </g>
   <g id="FillBetweenPolyCollection_1">
    <path d="M 135 185.622228 
L 135 188.325393 
L 138.70508 190.494618 
L 142.41016 192.669715 
L 146.115241 194.844812 
L 149.820321 197.019909 
L 153.525401 199.194833 
L 157.230481 201.366497 
L 160.935561 203.53816 
L 164.640642 205.709816 
L 168.345722 207.881397 
L 172.050802 210.052979 
L 175.755882 212.22456 
L 179.460963 214.396142 
L 183.166043 216.569121 
L 186.871123 218.744614 
L 190.576203 220.920108 
L 194.281283 223.095518 
L 197.986364 225.267494 
L 201.691444 227.439406 
L 205.396524 229.611252 
L 209.101604 231.78026 
L 212.806684 233.94876 
L 216.511765 236.115817 
L 220.216845 238.283208 
L 223.921925 240.454159 
L 227.627005 242.622725 
L 231.332086 244.791292 
L 235.037166 246.959859 
L 238.742246 249.134647 
L 242.447326 251.300385 
L 246.152406 253.465197 
L 249.857487 255.63993 
L 253.562567 257.815069 
L 257.267647 259.985906 
L 260.972727 262.160494 
L 264.677807 264.33339 
L 268.382888 266.507072 
L 272.087968 268.680753 
L 275.793048 270.854435 
L 279.498128 273.028471 
L 283.203209 275.202165 
L 286.908289 277.388415 
L 290.613369 279.571283 
L 294.318449 281.766919 
L 298.023529 283.95637 
L 301.72861 286.145573 
L 305.43369 288.321515 
L 309.13877 290.500267 
L 312.84385 292.691505 
L 316.54893 294.871593 
L 320.254011 297.049582 
L 323.959091 299.233409 
L 327.664171 301.413054 
L 331.369251 303.601173 
L 335.074332 305.788801 
L 338.779412 307.976038 
L 342.484492 310.167883 
L 346.189572 312.354574 
L 349.894652 314.548403 
L 353.599733 316.742323 
L 357.304813 318.944104 
L 361.009893 321.141421 
L 364.714973 323.336186 
L 368.420053 325.52952 
L 372.125134 327.725495 
L 375.830214 329.920314 
L 379.535294 332.121333 
L 383.240374 334.326352 
L 386.945455 336.527069 
L 390.650535 338.726021 
L 394.355615 340.933741 
L 398.060695 343.134422 
L 401.765775 345.341881 
L 405.470856 347.548336 
L 409.175936 349.754758 
L 412.881016 351.957282 
L 416.586096 354.167176 
L 420.291176 356.374128 
L 423.996257 358.580534 
L 427.701337 360.786939 
L 431.406417 362.993345 
L 435.111497 365.198556 
L 438.816578 367.403745 
L 442.521658 369.61288 
L 446.226738 371.819252 
L 449.931818 374.025554 
L 453.636898 376.229453 
L 457.341979 378.431573 
L 461.047059 380.639967 
L 464.752139 382.851356 
L 468.457219 385.057742 
L 472.162299 387.259886 
L 475.86738 389.465779 
L 479.57246 391.677127 
L 483.27754 393.883781 
L 486.98262 396.095449 
L 490.687701 398.313219 
L 494.392781 400.530916 
L 498.097861 402.745875 
L 501.802941 404.953711 
L 501.802941 402.865664 
L 501.802941 402.865664 
L 498.097861 400.69273 
L 494.392781 398.516819 
L 490.687701 396.341492 
L 486.98262 394.166165 
L 483.27754 391.991638 
L 479.57246 389.823195 
L 475.86738 387.652023 
L 472.162299 385.471414 
L 468.457219 383.292186 
L 464.752139 381.127969 
L 461.047059 378.95154 
L 457.341979 376.766474 
L 453.636898 374.595115 
L 449.931818 372.420334 
L 446.226738 370.237871 
L 442.521658 368.062587 
L 438.816578 365.887275 
L 435.111497 363.711785 
L 431.406417 361.536398 
L 427.701337 359.359166 
L 423.996257 357.190505 
L 420.291176 355.010602 
L 416.586096 352.828473 
L 412.881016 350.644466 
L 409.175936 348.465695 
L 405.470856 346.287085 
L 401.765775 344.103606 
L 398.060695 341.916418 
L 394.355615 339.729268 
L 390.650535 337.545824 
L 386.945455 335.367043 
L 383.240374 333.175603 
L 379.535294 330.980987 
L 375.830214 328.793445 
L 372.125134 326.606234 
L 368.420053 324.425685 
L 364.714973 322.236908 
L 361.009893 320.048155 
L 357.304813 317.85763 
L 353.599733 315.663004 
L 349.894652 313.476884 
L 346.189572 311.281917 
L 342.484492 309.083998 
L 338.779412 306.893342 
L 335.074332 304.692516 
L 331.369251 302.493962 
L 327.664171 300.298991 
L 323.959091 298.103999 
L 320.254011 295.909325 
L 316.54893 293.714489 
L 312.84385 291.519029 
L 309.13877 289.324476 
L 305.43369 287.127476 
L 301.72861 284.93037 
L 298.023529 282.733268 
L 294.318449 280.531453 
L 290.613369 278.325696 
L 286.908289 276.119938 
L 283.203209 273.914181 
L 279.498128 271.713454 
L 275.793048 269.510947 
L 272.087968 267.30789 
L 268.382888 265.111548 
L 264.677807 262.911541 
L 260.972727 260.706143 
L 257.267647 258.493613 
L 253.562567 256.282077 
L 249.857487 254.075732 
L 246.152406 251.875007 
L 242.447326 249.677595 
L 238.742246 247.472134 
L 235.037166 245.272768 
L 231.332086 243.066832 
L 227.627005 240.866391 
L 223.921925 238.661445 
L 220.216845 236.453028 
L 216.511765 234.244479 
L 212.806684 232.036051 
L 209.101604 229.827668 
L 205.396524 227.621111 
L 201.691444 225.410755 
L 197.986364 223.207529 
L 194.281283 220.996701 
L 190.576203 218.785285 
L 186.871123 216.573562 
L 183.166043 214.364102 
L 179.460963 212.15621 
L 175.755882 209.948425 
L 172.050802 207.734767 
L 168.345722 205.524447 
L 164.640642 203.305064 
L 160.935561 201.092606 
L 157.230481 198.888238 
L 153.525401 196.683869 
L 149.820321 194.470112 
L 146.115241 192.255361 
L 142.41016 190.040651 
L 138.70508 187.831176 
L 135 185.622228 
z
" clip-path="url(#p0969d249fd)" style="fill-opacity: 0.15"/>
   </g>
   <g id="matplotlib.axis_1">
    <g id="xtick_1">
     <g id="line2d_1">
      <defs>
       <path id="m691a354566" d="M 0 0 
L 0 3.5 
" style="stroke: #000000; stroke-width: 0.8"/>
      </defs>
      <g>
       <use xlink:href="#m691a354566" x="135" y="384.48" style="stroke: #000000; stroke-width: 0.8"/>
      </g>
     </g>
     <g id="text_1">
      <!-- 0 -->
      <g transform="translate(131.81875 399.078438) scale(0.1 -0.1)">
       <defs>
        <path id="DejaVuSans-30" d="M 2034 4250 
Q 1547 4250 1301 3770 
Q 1056 3291 1056 2328 
Q 1056 1369 1301 889 
Q 1547 409 2034 409 
Q 2525 409 2770 889 
Q 3016 1369 3016 2328 
Q 3016 3291 2770 3770 
Q 2525 4250 2034 4250 
z
M 2034 4750 
Q 2819 4750 3233 4129 
Q 3647 3509 3647 2328 
Q 3647 1150 3233 529 
Q 2819 -91 2034 -91 
Q 1250 -91 836 529 
Q 422 1150 422 2328 
Q 422 3509 836 4129 
Q 1250 4750 2034 4750 
z
" transform="scale(0.015625)"/>
       </defs>
       <use xlink:href="#DejaVuSans-30"/>
      </g>
     </g>
    </g>
    <g id="xtick_2">
     <g id="line2d_2">
      <g>
       <use xlink:href="#m691a354566" x="184.235294" y="384.48" style="stroke: #000000; stroke-width: 0.8"/>
      </g>
     </g>
     <g id="text_2">
      <!-- 200 -->
      <g transform="translate(174.691544 399.078438) scale(0.1 -0.1)">
       <defs>
        <path id="DejaVuSans-32" d="M 1228 531 
L 3431 531 
L 3431 0 
L 469 0 
L 469 531 
Q 828 903 1448 1529 
Q 2069 2156 2228 2338 
Q 2531 2678 2651 2914 
Q 2772 3150 2772 3378 
Q 2772 3750 2511 3984 
Q 2250 4219 1831 4219 
Q 1534 4219 1204 4116 
Q 875 4013 500 3803 
L 500 4441 
Q 881 4594 1212 4672 
Q 1544 4750 1819 4750 
Q 2544 4750 2975 4387 
Q 3406 4025 3406 3419 
Q 3406 3131 3298 2873 
Q 3191 2616 2906 2266 
Q 2828 2175 2409 1742 
Q 1991 1309 1228 531 
z
" transform="scale(0.015625)"/>
       </defs>
       <use xlink:href="#DejaVuSans-32"/>
       <use xlink:href="#DejaVuSans-30" transform="translate(63.623047 0)"/>
       <use xlink:href="#DejaVuSans-30" transform="translate(127.246094 0)"/>
      </g>
     </g>
    </g>
    <g id="xtick_3">
     <g id="line2d_3">
      <g>
       <use xlink:href="#m691a354566" x="233.470588" y="384.48" style="stroke: #000000; stroke-width: 0.8"/>
      </g>
     </g>
     <g id="text_3">
      <!-- 400 -->
      <g transform="translate(223.926838 399.078438) scale(0.1 -0.1)">
       <defs>
        <path id="DejaVuSans-34" d="M 2419 4116 
L 825 1625 
L 2419 1625 
L 2419 4116 
z
M 2253 4666 
L 3047 4666 
L 3047 1625 
L 3713 1625 
L 3713 1100 
L 3047 1100 
L 3047 0 
L 2419 0 
L 2419 1100 
L 313 1100 
L 313 1709 
L 2253 4666 
z
" transform="scale(0.015625)"/>
       </defs>
       <use xlink:href="#DejaVuSans-34"/>
       <use xlink:href="#DejaVuSans-30" transform="translate(63.623047 0)"/>
       <use xlink:href="#DejaVuSans-30" transform="translate(127.246094 0)"/>
      </g>
     </g>
    </g>
    <g id="xtick_4">
     <g id="line2d_4">
      <g>
       <use xlink:href="#m691a354566" x="282.705882" y="384.48" style="stroke: #000000; stroke-width: 0.8"/>
      </g>
     </g>
     <g id="text_4">
      <!-- 600 -->
      <g transform="translate(273.162132 399.078438) scale(0.1 -0.1)">
       <defs>
        <path id="DejaVuSans-36" d="M 2113 2584 
Q 1688 2584 1439 2293 
Q 1191 2003 1191 1497 
Q 1191 994 1439 701 
Q 1688 409 2113 409 
Q 2538 409 2786 701 
Q 3034 994 3034 1497 
Q 3034 2003 2786 2293 
Q 2538 2584 2113 2584 
z
M 3366 4563 
L 3366 3988 
Q 3128 4100 2886 4159 
Q 2644 4219 2406 4219 
Q 1781 4219 1451 3797 
Q 1122 3375 1075 2522 
Q 1259 2794 1537 2939 
Q 1816 3084 2150 3084 
Q 2853 3084 3261 2657 
Q 3669 2231 3669 1497 
Q 3669 778 3244 343 
Q 2819 -91 2113 -91 
Q 1303 -91 875 529 
Q 447 1150 447 2328 
Q 447 3434 972 4092 
Q 1497 4750 2381 4750 
Q 2619 4750 2861 4703 
Q 3103 4656 3366 4563 
z
" transform="scale(0.015625)"/>
       </defs>
       <use xlink:href="#DejaVuSans-36"/>
       <use xlink:href="#DejaVuSans-30" transform="translate(63.623047 0)"/>
       <use xlink:href="#DejaVuSans-30" transform="translate(127.246094 0)"/>
      </g>
     </g>
    </g>
    <g id="xtick_5">
     <g id="line2d_5">
      <g>
       <use xlink:href="#m691a354566" x="331.941176" y="384.48" style="stroke: #000000; stroke-width: 0.8"/>
      </g>
     </g>
     <g id="text_5">
      <!-- 800 -->
      <g transform="translate(322.397426 399.078438) scale(0.1 -0.1)">
       <defs>
        <path id="DejaVuSans-38" d="M 2034 2216 
Q 1584 2216 1326 1975 
Q 1069 1734 1069 1313 
Q 1069 891 1326 650 
Q 1584 409 2034 409 
Q 2484 409 2743 651 
Q 3003 894 3003 1313 
Q 3003 1734 2745 1975 
Q 2488 2216 2034 2216 
z
M 1403 2484 
Q 997 2584 770 2862 
Q 544 3141 544 3541 
Q 544 4100 942 4425 
Q 1341 4750 2034 4750 
Q 2731 4750 3128 4425 
Q 3525 4100 3525 3541 
Q 3525 3141 3298 2862 
Q 3072 2584 2669 2484 
Q 3125 2378 3379 2068 
Q 3634 1759 3634 1313 
Q 3634 634 3220 271 
Q 2806 -91 2034 -91 
Q 1263 -91 848 271 
Q 434 634 434 1313 
Q 434 1759 690 2068 
Q 947 2378 1403 2484 
z
M 1172 3481 
Q 1172 3119 1398 2916 
Q 1625 2713 2034 2713 
Q 2441 2713 2670 2916 
Q 2900 3119 2900 3481 
Q 2900 3844 2670 4047 
Q 2441 4250 2034 4250 
Q 1625 4250 1398 4047 
Q 1172 3844 1172 3481 
z
" transform="scale(0.015625)"/>
       </defs>
       <use xlink:href="#DejaVuSans-38"/>
       <use xlink:href="#DejaVuSans-30" transform="translate(63.623047 0)"/>
       <use xlink:href="#DejaVuSans-30" transform="translate(127.246094 0)"/>
      </g>
     </g>
    </g>
    <g id="xtick_6">
     <g id="line2d_6">
      <g>
       <use xlink:href="#m691a354566" x="381.176471" y="384.48" style="stroke: #000000; stroke-width: 0.8"/>
      </g>
     </g>
     <g id="text_6">
      <!-- 1000 -->
      <g transform="translate(368.451471 399.078438) scale(0.1 -0.1)">
       <defs>
        <path id="DejaVuSans-31" d="M 794 531 
L 1825 531 
L 1825 4091 
L 703 3866 
L 703 4441 
L 1819 4666 
L 2450 4666 
L 2450 531 
L 3481 531 
L 3481 0 
L 794 0 
L 794 531 
z
" transform="scale(0.015625)"/>
       </defs>
       <use xlink:href="#DejaVuSans-31"/>
       <use xlink:href="#DejaVuSans-30" transform="translate(63.623047 0)"/>
       <use xlink:href="#DejaVuSans-30" transform="translate(127.246094 0)"/>
       <use xlink:href="#DejaVuSans-30" transform="translate(190.869141 0)"/>
      </g>
     </g>
    </g>
    <g id="text_7">
     <!-- Tiempo, s -->
     <g transform="translate(233.838235 412.756563) scale(0.1 -0.1)">
      <defs>
       <path id="DejaVuSans-54" d="M -19 4666 
L 3928 4666 
L 3928 4134 
L 2272 4134 
L 2272 0 
L 1638 0 
L 1638 4134 
L -19 4134 
L -19 4666 
z
" transform="scale(0.015625)"/>
       <path id="DejaVuSans-69" d="M 603 3500 
L 1178 3500 
L 1178 0 
L 603 0 
L 603 3500 
z
M 603 4863 
L 1178 4863 
L 1178 4134 
L 603 4134 
L 603 4863 
z
" transform="scale(0.015625)"/>
       <path id="DejaVuSans-65" d="M 3597 1894 
L 3597 1613 
L 953 1613 
Q 991 1019 1311 708 
Q 1631 397 2203 397 
Q 2534 397 2845 478 
Q 3156 559 3463 722 
L 3463 178 
Q 3153 47 2828 -22 
Q 2503 -91 2169 -91 
Q 1331 -91 842 396 
Q 353 884 353 1716 
Q 353 2575 817 3079 
Q 1281 3584 2069 3584 
Q 2775 3584 3186 3129 
Q 3597 2675 3597 1894 
z
M 3022 2063 
Q 3016 2534 2758 2815 
Q 2500 3097 2075 3097 
Q 1594 3097 1305 2825 
Q 1016 2553 972 2059 
L 3022 2063 
z
" transform="scale(0.015625)"/>
       <path id="DejaVuSans-6d" d="M 3328 2828 
Q 3544 3216 3844 3400 
Q 4144 3584 4550 3584 
Q 5097 3584 5394 3201 
Q 5691 2819 5691 2113 
L 5691 0 
L 5113 0 
L 5113 2094 
Q 5113 2597 4934 2840 
Q 4756 3084 4391 3084 
Q 3944 3084 3684 2787 
Q 3425 2491 3425 1978 
L 3425 0 
L 2847 0 
L 2847 2094 
Q 2847 2600 2669 2842 
Q 2491 3084 2119 3084 
Q 1678 3084 1418 2786 
Q 1159 2488 1159 1978 
L 1159 0 
L 581 0 
L 581 3500 
L 1159 3500 
L 1159 2956 
Q 1356 3278 1631 3431 
Q 1906 3584 2284 3584 
Q 2666 3584 2933 3390 
Q 3200 3197 3328 2828 
z
" transform="scale(0.015625)"/>
       <path id="DejaVuSans-70" d="M 1159 525 
L 1159 -1331 
L 581 -1331 
L 581 3500 
L 1159 3500 
L 1159 2969 
Q 1341 3281 1617 3432 
Q 1894 3584 2278 3584 
Q 2916 3584 3314 3078 
Q 3713 2572 3713 1747 
Q 3713 922 3314 415 
Q 2916 -91 2278 -91 
Q 1894 -91 1617 61 
Q 1341 213 1159 525 
z
M 3116 1747 
Q 3116 2381 2855 2742 
Q 2594 3103 2138 3103 
Q 1681 3103 1420 2742 
Q 1159 2381 1159 1747 
Q 1159 1113 1420 752 
Q 1681 391 2138 391 
Q 2594 391 2855 752 
Q 3116 1113 3116 1747 
z
" transform="scale(0.015625)"/>
       <path id="DejaVuSans-6f" d="M 1959 3097 
Q 1497 3097 1228 2736 
Q 959 2375 959 1747 
Q 959 1119 1226 758 
Q 1494 397 1959 397 
Q 2419 397 2687 759 
Q 2956 1122 2956 1747 
Q 2956 2369 2687 2733 
Q 2419 3097 1959 3097 
z
M 1959 3584 
Q 2709 3584 3137 3096 
Q 3566 2609 3566 1747 
Q 3566 888 3137 398 
Q 2709 -91 1959 -91 
Q 1206 -91 779 398 
Q 353 888 353 1747 
Q 353 2609 779 3096 
Q 1206 3584 1959 3584 
z
" transform="scale(0.015625)"/>
       <path id="DejaVuSans-2c" d="M 750 794 
L 1409 794 
L 1409 256 
L 897 -744 
L 494 -744 
L 750 256 
L 750 794 
z
" transform="scale(0.015625)"/>
       <path id="DejaVuSans-20" transform="scale(0.015625)"/>
       <path id="DejaVuSans-73" d="M 2834 3397 
L 2834 2853 
Q 2591 2978 2328 3040 
Q 2066 3103 1784 3103 
Q 1356 3103 1142 2972 
Q 928 2841 928 2578 
Q 928 2378 1081 2264 
Q 1234 2150 1697 2047 
L 1894 2003 
Q 2506 1872 2764 1633 
Q 3022 1394 3022 966 
Q 3022 478 2636 193 
Q 2250 -91 1575 -91 
Q 1294 -91 989 -36 
Q 684 19 347 128 
L 347 722 
Q 666 556 975 473 
Q 1284 391 1588 391 
Q 1994 391 2212 530 
Q 2431 669 2431 922 
Q 2431 1156 2273 1281 
Q 2116 1406 1581 1522 
L 1381 1569 
Q 847 1681 609 1914 
Q 372 2147 372 2553 
Q 372 3047 722 3315 
Q 1072 3584 1716 3584 
Q 2034 3584 2315 3537 
Q 2597 3491 2834 3397 
z
" transform="scale(0.015625)"/>
      </defs>
      <use xlink:href="#DejaVuSans-54"/>
      <use xlink:href="#DejaVuSans-69" transform="translate(57.958984 0)"/>
      <use xlink:href="#DejaVuSans-65" transform="translate(85.742188 0)"/>
      <use xlink:href="#DejaVuSans-6d" transform="translate(147.265625 0)"/>
      <use xlink:href="#DejaVuSans-70" transform="translate(244.677734 0)"/>
      <use xlink:href="#DejaVuSans-6f" transform="translate(308.154297 0)"/>
      <use xlink:href="#DejaVuSans-2c" transform="translate(369.335938 0)"/>
      <use xlink:href="#DejaVuSans-20" transform="translate(401.123047 0)"/>
      <use xlink:href="#DejaVuSans-73" transform="translate(432.910156 0)"/>
     </g>
    </g>
   </g>
   <g id="matplotlib.axis_2">
    <g id="ytick_1">
     <g id="line2d_7">
      <defs>
       <path id="mee3a9dc969" d="M 0 0 
L -3.5 0 
" style="stroke: #000000; stroke-width: 0.8"/>
      </defs>
      <g>
       <use xlink:href="#mee3a9dc969" x="135" y="384.48" style="stroke: #000000; stroke-width: 0.8"/>
      </g>
     </g>
     <g id="text_8">
      <!-- 3.2 -->
      <g transform="translate(112.096875 388.279219) scale(0.1 -0.1)">
       <defs>
        <path id="DejaVuSans-33" d="M 2597 2516 
Q 3050 2419 3304 2112 
Q 3559 1806 3559 1356 
Q 3559 666 3084 287 
Q 2609 -91 1734 -91 
Q 1441 -91 1130 -33 
Q 819 25 488 141 
L 488 750 
Q 750 597 1062 519 
Q 1375 441 1716 441 
Q 2309 441 2620 675 
Q 2931 909 2931 1356 
Q 2931 1769 2642 2001 
Q 2353 2234 1838 2234 
L 1294 2234 
L 1294 2753 
L 1863 2753 
Q 2328 2753 2575 2939 
Q 2822 3125 2822 3475 
Q 2822 3834 2567 4026 
Q 2313 4219 1838 4219 
Q 1578 4219 1281 4162 
Q 984 4106 628 3988 
L 628 4550 
Q 988 4650 1302 4700 
Q 1616 4750 1894 4750 
Q 2613 4750 3031 4423 
Q 3450 4097 3450 3541 
Q 3450 3153 3228 2886 
Q 3006 2619 2597 2516 
z
" transform="scale(0.015625)"/>
        <path id="DejaVuSans-2e" d="M 684 794 
L 1344 794 
L 1344 0 
L 684 0 
L 684 794 
z
" transform="scale(0.015625)"/>
       </defs>
       <use xlink:href="#DejaVuSans-33"/>
       <use xlink:href="#DejaVuSans-2e" transform="translate(63.623047 0)"/>
       <use xlink:href="#DejaVuSans-32" transform="translate(95.410156 0)"/>
      </g>
     </g>
    </g>
    <g id="ytick_2">
     <g id="line2d_8">
      <g>
       <use xlink:href="#mee3a9dc969" x="135" y="317.952" style="stroke: #000000; stroke-width: 0.8"/>
      </g>
     </g>
     <g id="text_9">
      <!-- 3.4 -->
      <g transform="translate(112.096875 321.751219) scale(0.1 -0.1)">
       <use xlink:href="#DejaVuSans-33"/>
       <use xlink:href="#DejaVuSans-2e" transform="translate(63.623047 0)"/>
       <use xlink:href="#DejaVuSans-34" transform="translate(95.410156 0)"/>
      </g>
     </g>
    </g>
    <g id="ytick_3">
     <g id="line2d_9">
      <g>
       <use xlink:href="#mee3a9dc969" x="135" y="251.424" style="stroke: #000000; stroke-width: 0.8"/>
      </g>
     </g>
     <g id="text_10">
      <!-- 3.6 -->
      <g transform="translate(112.096875 255.223219) scale(0.1 -0.1)">
       <use xlink:href="#DejaVuSans-33"/>
       <use xlink:href="#DejaVuSans-2e" transform="translate(63.623047 0)"/>
       <use xlink:href="#DejaVuSans-36" transform="translate(95.410156 0)"/>
      </g>
     </g>
    </g>
    <g id="ytick_4">
     <g id="line2d_10">
      <g>
       <use xlink:href="#mee3a9dc969" x="135" y="184.896" style="stroke: #000000; stroke-width: 0.8"/>
      </g>
     </g>
     <g id="text_11">
      <!-- 3.8 -->
      <g transform="translate(112.096875 188.695219) scale(0.1 -0.1)">
       <use xlink:href="#DejaVuSans-33"/>
       <use xlink:href="#DejaVuSans-2e" transform="translate(63.623047 0)"/>
       <use xlink:href="#DejaVuSans-38" transform="translate(95.410156 0)"/>
      </g>
     </g>
    </g>
    <g id="ytick_5">
     <g id="line2d_11">
      <g>
       <use xlink:href="#mee3a9dc969" x="135" y="118.368" style="stroke: #000000; stroke-width: 0.8"/>
      </g>
     </g>
     <g id="text_12">
      <!-- 4.0 -->
      <g transform="translate(112.096875 122.167219) scale(0.1 -0.1)">
       <use xlink:href="#DejaVuSans-34"/>
       <use xlink:href="#DejaVuSans-2e" transform="translate(63.623047 0)"/>
       <use xlink:href="#DejaVuSans-30" transform="translate(95.410156 0)"/>
      </g>
     </g>
    </g>
    <g id="ytick_6">
     <g id="line2d_12">
      <g>
       <use xlink:href="#mee3a9dc969" x="135" y="51.84" style="stroke: #000000; stroke-width: 0.8"/>
      </g>
     </g>
     <g id="text_13">
      <!-- 4.2 -->
      <g transform="translate(112.096875 55.639219) scale(0.1 -0.1)">
       <use xlink:href="#DejaVuSans-34"/>
       <use xlink:href="#DejaVuSans-2e" transform="translate(63.623047 0)"/>
       <use xlink:href="#DejaVuSans-32" transform="translate(95.410156 0)"/>
      </g>
     </g>
    </g>
    <g id="text_14">
     <!-- Temperatura medida, $^{\circ} C$ -->
     <g transform="translate(105.996875 280.21) rotate(-90) scale(0.1 -0.1)">
      <defs>
       <path id="DejaVuSans-72" d="M 2631 2963 
Q 2534 3019 2420 3045 
Q 2306 3072 2169 3072 
Q 1681 3072 1420 2755 
Q 1159 2438 1159 1844 
L 1159 0 
L 581 0 
L 581 3500 
L 1159 3500 
L 1159 2956 
Q 1341 3275 1631 3429 
Q 1922 3584 2338 3584 
Q 2397 3584 2469 3576 
Q 2541 3569 2628 3553 
L 2631 2963 
z
" transform="scale(0.015625)"/>
       <path id="DejaVuSans-61" d="M 2194 1759 
Q 1497 1759 1228 1600 
Q 959 1441 959 1056 
Q 959 750 1161 570 
Q 1363 391 1709 391 
Q 2188 391 2477 730 
Q 2766 1069 2766 1631 
L 2766 1759 
L 2194 1759 
z
M 3341 1997 
L 3341 0 
L 2766 0 
L 2766 531 
Q 2569 213 2275 61 
Q 1981 -91 1556 -91 
Q 1019 -91 701 211 
Q 384 513 384 1019 
Q 384 1609 779 1909 
Q 1175 2209 1959 2209 
L 2766 2209 
L 2766 2266 
Q 2766 2663 2505 2880 
Q 2244 3097 1772 3097 
Q 1472 3097 1187 3025 
Q 903 2953 641 2809 
L 641 3341 
Q 956 3463 1253 3523 
Q 1550 3584 1831 3584 
Q 2591 3584 2966 3190 
Q 3341 2797 3341 1997 
z
" transform="scale(0.015625)"/>
       <path id="DejaVuSans-74" d="M 1172 4494 
L 1172 3500 
L 2356 3500 
L 2356 3053 
L 1172 3053 
L 1172 1153 
Q 1172 725 1289 603 
Q 1406 481 1766 481 
L 2356 481 
L 2356 0 
L 1766 0 
Q 1100 0 847 248 
Q 594 497 594 1153 
L 594 3053 
L 172 3053 
L 172 3500 
L 594 3500 
L 594 4494 
L 1172 4494 
z
" transform="scale(0.015625)"/>
       <path id="DejaVuSans-75" d="M 544 1381 
L 544 3500 
L 1119 3500 
L 1119 1403 
Q 1119 906 1312 657 
Q 1506 409 1894 409 
Q 2359 409 2629 706 
Q 2900 1003 2900 1516 
L 2900 3500 
L 3475 3500 
L 3475 0 
L 2900 0 
L 2900 538 
Q 2691 219 2414 64 
Q 2138 -91 1772 -91 
Q 1169 -91 856 284 
Q 544 659 544 1381 
z
M 1991 3584 
L 1991 3584 
z
" transform="scale(0.015625)"/>
       <path id="DejaVuSans-64" d="M 2906 2969 
L 2906 4863 
L 3481 4863 
L 3481 0 
L 2906 0 
L 2906 525 
Q 2725 213 2448 61 
Q 2172 -91 1784 -91 
Q 1150 -91 751 415 
Q 353 922 353 1747 
Q 353 2572 751 3078 
Q 1150 3584 1784 3584 
Q 2172 3584 2448 3432 
Q 2725 3281 2906 2969 
z
M 947 1747 
Q 947 1113 1208 752 
Q 1469 391 1925 391 
Q 2381 391 2643 752 
Q 2906 1113 2906 1747 
Q 2906 2381 2643 2742 
Q 2381 3103 1925 3103 
Q 1469 3103 1208 2742 
Q 947 2381 947 1747 
z
" transform="scale(0.015625)"/>
       <path id="DejaVuSans-2218" d="M 2000 2619 
Q 1750 2619 1578 2445 
Q 1406 2272 1406 2022 
Q 1406 1775 1578 1605 
Q 1750 1435 2000 1435 
Q 2250 1435 2422 1605 
Q 2594 1775 2594 2022 
Q 2594 2269 2420 2444 
Q 2247 2619 2000 2619 
z
M 2000 3022 
Q 2200 3022 2384 2945 
Q 2569 2869 2703 2725 
Q 2847 2585 2919 2406 
Q 2991 2228 2991 2022 
Q 2991 1610 2702 1324 
Q 2413 1038 1994 1038 
Q 1572 1038 1290 1319 
Q 1009 1600 1009 2022 
Q 1009 2441 1296 2731 
Q 1584 3022 2000 3022 
z
" transform="scale(0.015625)"/>
       <path id="DejaVuSans-Oblique-43" d="M 4447 4306 
L 4319 3641 
Q 4019 3944 3683 4091 
Q 3347 4238 2956 4238 
Q 2422 4238 2017 3981 
Q 1613 3725 1319 3200 
Q 1131 2863 1032 2486 
Q 934 2109 934 1728 
Q 934 1091 1264 756 
Q 1594 422 2222 422 
Q 2656 422 3056 561 
Q 3456 700 3834 978 
L 3688 231 
Q 3316 72 2936 -9 
Q 2556 -91 2175 -91 
Q 1278 -91 773 396 
Q 269 884 269 1753 
Q 269 2309 461 2846 
Q 653 3384 1013 3828 
Q 1394 4300 1883 4525 
Q 2372 4750 3022 4750 
Q 3422 4750 3780 4639 
Q 4138 4528 4447 4306 
z
" transform="scale(0.015625)"/>
      </defs>
      <use xlink:href="#DejaVuSans-54" transform="translate(0 0.015625)"/>
      <use xlink:href="#DejaVuSans-65" transform="translate(61.083984 0.015625)"/>
      <use xlink:href="#DejaVuSans-6d" transform="translate(122.607422 0.015625)"/>
      <use xlink:href="#DejaVuSans-70" transform="translate(220.019531 0.015625)"/>
      <use xlink:href="#DejaVuSans-65" transform="translate(283.496094 0.015625)"/>
      <use xlink:href="#DejaVuSans-72" transform="translate(345.019531 0.015625)"/>
      <use xlink:href="#DejaVuSans-61" transform="translate(386.132812 0.015625)"/>
      <use xlink:href="#DejaVuSans-74" transform="translate(447.412109 0.015625)"/>
      <use xlink:href="#DejaVuSans-75" transform="translate(486.621094 0.015625)"/>
      <use xlink:href="#DejaVuSans-72" transform="translate(550 0.015625)"/>
      <use xlink:href="#DejaVuSans-61" transform="translate(591.113281 0.015625)"/>
      <use xlink:href="#DejaVuSans-20" transform="translate(652.392578 0.015625)"/>
      <use xlink:href="#DejaVuSans-6d" transform="translate(684.179688 0.015625)"/>
      <use xlink:href="#DejaVuSans-65" transform="translate(781.591797 0.015625)"/>
      <use xlink:href="#DejaVuSans-64" transform="translate(843.115234 0.015625)"/>
      <use xlink:href="#DejaVuSans-69" transform="translate(906.591797 0.015625)"/>
      <use xlink:href="#DejaVuSans-64" transform="translate(934.375 0.015625)"/>
      <use xlink:href="#DejaVuSans-61" transform="translate(997.851562 0.015625)"/>
      <use xlink:href="#DejaVuSans-2c" transform="translate(1059.130859 0.015625)"/>
      <use xlink:href="#DejaVuSans-20" transform="translate(1090.917969 0.015625)"/>
      <use xlink:href="#DejaVuSans-2218" transform="translate(1123.662109 38.296875) scale(0.7)"/>
      <use xlink:href="#DejaVuSans-Oblique-43" transform="translate(1170.214844 0.015625)"/>
     </g>
    </g>
   </g>
   <g id="line2d_13">
    <path d="M 135 186.867966 
L 138.70508 189.059832 
L 142.41016 191.251698 
L 146.115241 193.443565 
L 149.820321 195.635431 
L 153.525401 197.827297 
L 157.230481 200.019163 
L 160.935561 202.211029 
L 164.640642 204.402895 
L 168.345722 206.594761 
L 172.050802 208.786628 
L 175.755882 210.978494 
L 179.460963 213.17036 
L 183.166043 215.362226 
L 186.871123 217.554092 
L 190.576203 219.745958 
L 194.281283 221.937824 
L 197.986364 224.12969 
L 201.691444 226.321557 
L 205.396524 228.513423 
L 209.101604 230.705289 
L 212.806684 232.897155 
L 216.511765 235.089021 
L 220.216845 237.280887 
L 223.921925 239.472753 
L 227.627005 241.66462 
L 231.332086 243.856486 
L 235.037166 246.048352 
L 238.742246 248.240218 
L 242.447326 250.432084 
L 246.152406 252.62395 
L 249.857487 254.815816 
L 253.562567 257.007683 
L 257.267647 259.199549 
L 260.972727 261.391415 
L 264.677807 263.583281 
L 268.382888 265.775147 
L 272.087968 267.967013 
L 275.793048 270.158879 
L 279.498128 272.350745 
L 283.203209 274.542612 
L 286.908289 276.734478 
L 290.613369 278.926344 
L 294.318449 281.11821 
L 298.023529 283.310076 
L 301.72861 285.501942 
L 305.43369 287.693808 
L 309.13877 289.885675 
L 312.84385 292.077541 
L 316.54893 294.269407 
L 320.254011 296.461273 
L 323.959091 298.653139 
L 327.664171 300.845005 
L 331.369251 303.036871 
L 335.074332 305.228738 
L 338.779412 307.420604 
L 342.484492 309.61247 
L 346.189572 311.804336 
L 349.894652 313.996202 
L 353.599733 316.188068 
L 357.304813 318.379934 
L 361.009893 320.5718 
L 364.714973 322.763667 
L 368.420053 324.955533 
L 372.125134 327.147399 
L 375.830214 329.339265 
L 379.535294 331.531131 
L 383.240374 333.722997 
L 386.945455 335.914863 
L 390.650535 338.10673 
L 394.355615 340.298596 
L 398.060695 342.490462 
L 401.765775 344.682328 
L 405.470856 346.874194 
L 409.175936 349.06606 
L 412.881016 351.257926 
L 416.586096 353.449793 
L 420.291176 355.641659 
L 423.996257 357.833525 
L 427.701337 360.025391 
L 431.406417 362.217257 
L 435.111497 364.409123 
L 438.816578 366.600989 
L 442.521658 368.792855 
L 446.226738 370.984722 
L 449.931818 373.176588 
L 453.636898 375.368454 
L 457.341979 377.56032 
L 461.047059 379.752186 
L 464.752139 381.944052 
L 468.457219 384.135918 
L 472.162299 386.327785 
L 475.86738 388.519651 
L 479.57246 390.711517 
L 483.27754 392.903383 
L 486.98262 395.095249 
L 490.687701 397.287115 
L 494.392781 399.478981 
L 498.097861 401.670848 
L 501.802941 403.862714 
" clip-path="url(#p0969d249fd)" style="fill: none; stroke: #000000; stroke-linecap: square"/>
   </g>
   <g id="patch_3">
    <path d="M 135 384.48 
L 135 51.84 
" style="fill: none; stroke: #000000; stroke-width: 0.8; stroke-linejoin: miter; stroke-linecap: square"/>
   </g>
   <g id="patch_4">
    <path d="M 381.176471 384.48 
L 381.176471 51.84 
" style="fill: none; stroke: #000000; stroke-width: 0.8; stroke-linejoin: miter; stroke-linecap: square"/>
   </g>
   <g id="patch_5">
    <path d="M 135 384.48 
L 381.176471 384.48 
" style="fill: none; stroke: #000000; stroke-width: 0.8; stroke-linejoin: miter; stroke-linecap: square"/>
   </g>
   <g id="patch_6">
    <path d="M 135 51.84 
L 381.176471 51.84 
" style="fill: none; stroke: #000000; stroke-width: 0.8; stroke-linejoin: miter; stroke-linecap: square"/>
   </g>
   <g id="PathCollection_1">
    <defs>
     <path id="m558bb43886" d="M -3 3 
L 3 -3 
M -3 -3 
L 3 3 
" style="stroke: #b5828c; stroke-width: 1.5"/>
    </defs>
    <g clip-path="url(#p0969d249fd)">
     <use xlink:href="#m558bb43886" x="135" y="179.004172" style="fill: #b5828c; stroke: #b5828c; stroke-width: 1.5"/>
     <use xlink:href="#m558bb43886" x="147.308824" y="187.144823" style="fill: #b5828c; stroke: #b5828c; stroke-width: 1.5"/>
     <use xlink:href="#m558bb43886" x="159.617647" y="196.258818" style="fill: #b5828c; stroke: #b5828c; stroke-width: 1.5"/>
     <use xlink:href="#m558bb43886" x="171.926471" y="205.629578" style="fill: #b5828c; stroke: #b5828c; stroke-width: 1.5"/>
     <use xlink:href="#m558bb43886" x="184.235294" y="215.271992" style="fill: #b5828c; stroke: #b5828c; stroke-width: 1.5"/>
     <use xlink:href="#m558bb43886" x="196.544118" y="223.52651" style="fill: #b5828c; stroke: #b5828c; stroke-width: 1.5"/>
     <use xlink:href="#m558bb43886" x="208.852941" y="231.134872" style="fill: #b5828c; stroke: #b5828c; stroke-width: 1.5"/>
     <use xlink:href="#m558bb43886" x="221.161765" y="238.047121" style="fill: #b5828c; stroke: #b5828c; stroke-width: 1.5"/>
     <use xlink:href="#m558bb43886" x="233.470588" y="237.175194" style="fill: #b5828c; stroke: #b5828c; stroke-width: 1.5"/>
     <use xlink:href="#m558bb43886" x="245.779412" y="253.230643" style="fill: #b5828c; stroke: #b5828c; stroke-width: 1.5"/>
     <use xlink:href="#m558bb43886" x="258.088235" y="260.622947" style="fill: #b5828c; stroke: #b5828c; stroke-width: 1.5"/>
     <use xlink:href="#m558bb43886" x="270.397059" y="268.183272" style="fill: #b5828c; stroke: #b5828c; stroke-width: 1.5"/>
     <use xlink:href="#m558bb43886" x="282.705882" y="279.856049" style="fill: #b5828c; stroke: #b5828c; stroke-width: 1.5"/>
     <use xlink:href="#m558bb43886" x="295.014706" y="286.859255" style="fill: #b5828c; stroke: #b5828c; stroke-width: 1.5"/>
     <use xlink:href="#m558bb43886" x="307.323529" y="295.04773" style="fill: #b5828c; stroke: #b5828c; stroke-width: 1.5"/>
     <use xlink:href="#m558bb43886" x="319.632353" y="301.324143" style="fill: #b5828c; stroke: #b5828c; stroke-width: 1.5"/>
     <use xlink:href="#m558bb43886" x="331.941176" y="306.646496" style="fill: #b5828c; stroke: #b5828c; stroke-width: 1.5"/>
     <use xlink:href="#m558bb43886" x="344.25" y="313.147811" style="fill: #b5828c; stroke: #b5828c; stroke-width: 1.5"/>
     <use xlink:href="#m558bb43886" x="356.558824" y="322.018736" style="fill: #b5828c; stroke: #b5828c; stroke-width: 1.5"/>
     <use xlink:href="#m558bb43886" x="368.867647" y="326.544521" style="fill: #b5828c; stroke: #b5828c; stroke-width: 1.5"/>
     <use xlink:href="#m558bb43886" x="381.176471" y="332.289741" style="fill: #b5828c; stroke: #b5828c; stroke-width: 1.5"/>
     <use xlink:href="#m558bb43886" x="393.485294" y="339.317608" style="fill: #b5828c; stroke: #b5828c; stroke-width: 1.5"/>
     <use xlink:href="#m558bb43886" x="405.794118" y="347.708972" style="fill: #b5828c; stroke: #b5828c; stroke-width: 1.5"/>
     <use xlink:href="#m558bb43886" x="418.102941" y="352.600825" style="fill: #b5828c; stroke: #b5828c; stroke-width: 1.5"/>
     <use xlink:href="#m558bb43886" x="430.411765" y="360.076196" style="fill: #b5828c; stroke: #b5828c; stroke-width: 1.5"/>
     <use xlink:href="#m558bb43886" x="442.720588" y="367.723429" style="fill: #b5828c; stroke: #b5828c; stroke-width: 1.5"/>
     <use xlink:href="#m558bb43886" x="455.029412" y="374.233226" style="fill: #b5828c; stroke: #b5828c; stroke-width: 1.5"/>
     <use xlink:href="#m558bb43886" x="467.338235" y="384.921374" style="fill: #b5828c; stroke: #b5828c; stroke-width: 1.5"/>
     <use xlink:href="#m558bb43886" x="479.647059" y="386.281867" style="fill: #b5828c; stroke: #b5828c; stroke-width: 1.5"/>
     <use xlink:href="#m558bb43886" x="491.955882" y="394.563788" style="fill: #b5828c; stroke: #b5828c; stroke-width: 1.5"/>
    </g>
   </g>
   <g id="text_15">
    <!-- $r^2=$ 0.99694 $K=$0.000438 -->
    <g transform="translate(176.548235 45.84) scale(0.12 -0.12)">
     <defs>
      <path id="DejaVuSans-Oblique-72" d="M 2853 2969 
Q 2766 3016 2653 3041 
Q 2541 3066 2413 3066 
Q 1953 3066 1609 2717 
Q 1266 2369 1153 1784 
L 800 0 
L 225 0 
L 909 3500 
L 1484 3500 
L 1375 2956 
Q 1603 3259 1920 3421 
Q 2238 3584 2597 3584 
Q 2691 3584 2781 3573 
Q 2872 3563 2963 3538 
L 2853 2969 
z
" transform="scale(0.015625)"/>
      <path id="DejaVuSans-3d" d="M 678 2906 
L 4684 2906 
L 4684 2381 
L 678 2381 
L 678 2906 
z
M 678 1631 
L 4684 1631 
L 4684 1100 
L 678 1100 
L 678 1631 
z
" transform="scale(0.015625)"/>
      <path id="DejaVuSans-39" d="M 703 97 
L 703 672 
Q 941 559 1184 500 
Q 1428 441 1663 441 
Q 2288 441 2617 861 
Q 2947 1281 2994 2138 
Q 2813 1869 2534 1725 
Q 2256 1581 1919 1581 
Q 1219 1581 811 2004 
Q 403 2428 403 3163 
Q 403 3881 828 4315 
Q 1253 4750 1959 4750 
Q 2769 4750 3195 4129 
Q 3622 3509 3622 2328 
Q 3622 1225 3098 567 
Q 2575 -91 1691 -91 
Q 1453 -91 1209 -44 
Q 966 3 703 97 
z
M 1959 2075 
Q 2384 2075 2632 2365 
Q 2881 2656 2881 3163 
Q 2881 3666 2632 3958 
Q 2384 4250 1959 4250 
Q 1534 4250 1286 3958 
Q 1038 3666 1038 3163 
Q 1038 2656 1286 2365 
Q 1534 2075 1959 2075 
z
" transform="scale(0.015625)"/>
      <path id="DejaVuSans-Oblique-4b" d="M 1081 4666 
L 1716 4666 
L 1331 2700 
L 3781 4666 
L 4622 4666 
L 1850 2438 
L 3878 0 
L 3109 0 
L 1247 2272 
L 806 0 
L 172 0 
L 1081 4666 
z
" transform="scale(0.015625)"/>
     </defs>
     <use xlink:href="#DejaVuSans-Oblique-72" transform="translate(0 0.765625)"/>
     <use xlink:href="#DejaVuSans-32" transform="translate(45.763177 39.046875) scale(0.7)"/>
     <use xlink:href="#DejaVuSans-3d" transform="translate(112.516107 0.765625)"/>
     <use xlink:href="#DejaVuSans-20" transform="translate(215.787591 0.765625)"/>
     <use xlink:href="#DejaVuSans-30" transform="translate(247.574701 0.765625)"/>
     <use xlink:href="#DejaVuSans-2e" transform="translate(311.197747 0.765625)"/>
     <use xlink:href="#DejaVuSans-39" transform="translate(342.984857 0.765625)"/>
     <use xlink:href="#DejaVuSans-39" transform="translate(406.607904 0.765625)"/>
     <use xlink:href="#DejaVuSans-36" transform="translate(470.230951 0.765625)"/>
     <use xlink:href="#DejaVuSans-39" transform="translate(533.853997 0.765625)"/>
     <use xlink:href="#DejaVuSans-34" transform="translate(597.477044 0.765625)"/>
     <use xlink:href="#DejaVuSans-20" transform="translate(661.100091 0.765625)"/>
     <use xlink:href="#DejaVuSans-Oblique-4b" transform="translate(692.887201 0.765625)"/>
     <use xlink:href="#DejaVuSans-3d" transform="translate(777.945794 0.765625)"/>
     <use xlink:href="#DejaVuSans-30" transform="translate(881.217279 0.765625)"/>
     <use xlink:href="#DejaVuSans-2e" transform="translate(944.840326 0.765625)"/>
     <use xlink:href="#DejaVuSans-30" transform="translate(976.627435 0.765625)"/>
     <use xlink:href="#DejaVuSans-30" transform="translate(1040.250482 0.765625)"/>
     <use xlink:href="#DejaVuSans-30" transform="translate(1103.873529 0.765625)"/>
     <use xlink:href="#DejaVuSans-34" transform="translate(1167.496576 0.765625)"/>
     <use xlink:href="#DejaVuSans-33" transform="translate(1231.119622 0.765625)"/>
     <use xlink:href="#DejaVuSans-38" transform="translate(1294.742669 0.765625)"/>
    </g>
   </g>
  </g>
  <g id="axes_2">
   <g id="patch_7">
    <path d="M 430.411765 384.48 
L 676.588235 384.48 
L 676.588235 51.84 
L 430.411765 51.84 
z
" style="fill: #ffffff"/>
   </g>
   <g id="FillBetweenPolyCollection_2">
    <path d="M 430.411765 139.279778 
L 430.411765 146.365817 
L 434.116845 149.407082 
L 437.821925 152.448347 
L 441.527005 155.489612 
L 445.232086 158.530877 
L 448.937166 161.572141 
L 452.642246 164.613406 
L 456.347326 167.654671 
L 460.052406 170.695936 
L 463.757487 173.737201 
L 467.462567 176.778466 
L 471.167647 179.819703 
L 474.872727 182.860824 
L 478.577807 185.901909 
L 482.282888 188.942868 
L 485.987968 191.983675 
L 489.693048 195.013307 
L 493.398128 198.050753 
L 497.103209 201.093517 
L 500.808289 204.14506 
L 504.513369 207.189582 
L 508.218449 210.230912 
L 511.923529 213.276234 
L 515.62861 216.313154 
L 519.33369 219.354275 
L 523.03877 222.395396 
L 526.74385 225.434861 
L 530.44893 228.473389 
L 534.154011 231.518952 
L 537.859091 234.560294 
L 541.564171 237.601636 
L 545.269251 240.650412 
L 548.974332 243.701936 
L 552.679412 246.75346 
L 556.384492 249.803316 
L 560.089572 252.850721 
L 563.794652 255.898125 
L 567.499733 258.955649 
L 571.204813 262.011994 
L 574.909893 265.063582 
L 578.614973 268.115647 
L 582.320053 271.166896 
L 586.025134 274.223795 
L 589.730214 277.274178 
L 593.435294 280.329171 
L 597.140374 283.374234 
L 600.845455 286.443505 
L 604.550535 289.493542 
L 608.255615 292.551187 
L 611.960695 295.59988 
L 615.665775 298.648437 
L 619.370856 301.732712 
L 623.075936 304.792427 
L 626.781016 307.852205 
L 630.486096 310.899396 
L 634.191176 313.971967 
L 637.896257 317.065895 
L 641.601337 320.144459 
L 645.306417 323.198438 
L 649.011497 326.302658 
L 652.716578 329.407968 
L 656.421658 332.513043 
L 660.126738 335.618588 
L 663.831818 338.737291 
L 667.536898 341.851842 
L 671.241979 344.973857 
L 674.947059 348.086631 
L 678.652139 351.231697 
L 682.357219 354.341958 
L 686.062299 357.484948 
L 689.76738 360.608079 
L 693.47246 363.722018 
L 697.17754 366.854114 
L 700.88262 370.001836 
L 704.587701 373.141986 
L 708.292781 376.248184 
L 711.997861 379.382733 
L 715.702941 382.515537 
L 719.408021 385.652567 
L 723.113102 388.797044 
L 726.818182 391.941362 
L 730.523262 395.086113 
L 734.228342 398.210898 
L 737.933422 401.350034 
L 741.638503 404.488645 
L 745.343583 407.630169 
L 749.048663 410.783539 
L 752.753743 413.910783 
L 756.458824 417.045546 
L 760.163904 420.184822 
L 763.868984 423.323845 
L 767.574064 426.462867 
L 771.279144 429.60189 
L 774.984225 432.75176 
L 778.689305 435.906966 
L 782.394385 439.062173 
L 786.099465 442.217379 
L 789.804545 445.359232 
L 793.509626 448.499508 
L 797.214706 451.639393 
L 797.214706 446.684709 
L 797.214706 446.684709 
L 793.509626 443.65257 
L 789.804545 440.621092 
L 786.099465 437.563361 
L 782.394385 434.523539 
L 778.689305 431.484705 
L 774.984225 428.441748 
L 771.279144 425.390598 
L 767.574064 422.333858 
L 763.868984 419.29201 
L 760.163904 416.238885 
L 756.458824 413.193054 
L 752.753743 410.150391 
L 749.048663 407.104503 
L 745.343583 404.049205 
L 741.638503 400.987184 
L 737.933422 397.92669 
L 734.228342 394.883835 
L 730.523262 391.822606 
L 726.818182 388.781043 
L 723.113102 385.725163 
L 719.408021 382.6513 
L 715.702941 379.57438 
L 711.997861 376.512489 
L 708.292781 373.439572 
L 704.587701 370.389038 
L 700.88262 367.327118 
L 697.17754 364.249965 
L 693.47246 361.188001 
L 689.76738 358.126615 
L 686.062299 355.02031 
L 682.357219 351.943819 
L 678.652139 348.849671 
L 674.947059 345.764392 
L 671.241979 342.672331 
L 667.536898 339.592585 
L 663.831818 336.497394 
L 660.126738 333.409314 
L 656.421658 330.322124 
L 652.716578 327.238519 
L 649.011497 324.150842 
L 645.306417 321.046619 
L 641.601337 317.942963 
L 637.896257 314.839199 
L 634.191176 311.757155 
L 630.486096 308.632076 
L 626.781016 305.53918 
L 623.075936 302.422761 
L 619.370856 299.30601 
L 615.665775 296.1893 
L 611.960695 293.071877 
L 608.255615 289.944642 
L 604.550535 286.817325 
L 600.845455 283.691876 
L 597.140374 280.56457 
L 593.435294 277.448402 
L 589.730214 274.301844 
L 586.025134 271.156937 
L 582.320053 268.025306 
L 578.614973 264.924173 
L 574.909893 261.809971 
L 571.204813 258.691721 
L 567.499733 255.552875 
L 563.794652 252.427586 
L 560.089572 249.291742 
L 556.384492 246.155741 
L 552.679412 243.020021 
L 548.974332 239.888125 
L 545.269251 236.739358 
L 541.564171 233.580185 
L 537.859091 230.448843 
L 534.154011 227.317675 
L 530.44893 224.185531 
L 526.74385 221.053593 
L 523.03877 217.907635 
L 519.33369 214.758816 
L 515.62861 211.603017 
L 511.923529 208.447407 
L 508.218449 205.292518 
L 504.513369 202.153677 
L 500.808289 198.997346 
L 497.103209 195.858369 
L 493.398128 192.712506 
L 489.693048 189.558612 
L 485.987968 186.402095 
L 482.282888 183.249552 
L 478.577807 180.120594 
L 474.872727 176.997239 
L 471.167647 173.873884 
L 467.462567 170.736284 
L 463.757487 167.597347 
L 460.052406 164.466221 
L 456.347326 161.335096 
L 452.642246 158.204289 
L 448.937166 155.049835 
L 445.232086 151.891885 
L 441.527005 148.734044 
L 437.821925 145.576203 
L 434.116845 142.418442 
L 430.411765 139.279778 
z
" clip-path="url(#p9682e8e154)" style="fill-opacity: 0.15"/>
   </g>
   <g id="matplotlib.axis_3">
    <g id="xtick_7">
     <g id="line2d_14">
      <g>
       <use xlink:href="#m691a354566" x="430.411765" y="384.48" style="stroke: #000000; stroke-width: 0.8"/>
      </g>
     </g>
     <g id="text_16">
      <!-- 0 -->
      <g transform="translate(427.230515 399.078438) scale(0.1 -0.1)">
       <use xlink:href="#DejaVuSans-30"/>
      </g>
     </g>
    </g>
    <g id="xtick_8">
     <g id="line2d_15">
      <g>
       <use xlink:href="#m691a354566" x="479.647059" y="384.48" style="stroke: #000000; stroke-width: 0.8"/>
      </g>
     </g>
     <g id="text_17">
      <!-- 200 -->
      <g transform="translate(470.103309 399.078438) scale(0.1 -0.1)">
       <use xlink:href="#DejaVuSans-32"/>
       <use xlink:href="#DejaVuSans-30" transform="translate(63.623047 0)"/>
       <use xlink:href="#DejaVuSans-30" transform="translate(127.246094 0)"/>
      </g>
     </g>
    </g>
    <g id="xtick_9">
     <g id="line2d_16">
      <g>
       <use xlink:href="#m691a354566" x="528.882353" y="384.48" style="stroke: #000000; stroke-width: 0.8"/>
      </g>
     </g>
     <g id="text_18">
      <!-- 400 -->
      <g transform="translate(519.338603 399.078438) scale(0.1 -0.1)">
       <use xlink:href="#DejaVuSans-34"/>
       <use xlink:href="#DejaVuSans-30" transform="translate(63.623047 0)"/>
       <use xlink:href="#DejaVuSans-30" transform="translate(127.246094 0)"/>
      </g>
     </g>
    </g>
    <g id="xtick_10">
     <g id="line2d_17">
      <g>
       <use xlink:href="#m691a354566" x="578.117647" y="384.48" style="stroke: #000000; stroke-width: 0.8"/>
      </g>
     </g>
     <g id="text_19">
      <!-- 600 -->
      <g transform="translate(568.573897 399.078438) scale(0.1 -0.1)">
       <use xlink:href="#DejaVuSans-36"/>
       <use xlink:href="#DejaVuSans-30" transform="translate(63.623047 0)"/>
       <use xlink:href="#DejaVuSans-30" transform="translate(127.246094 0)"/>
      </g>
     </g>
    </g>
    <g id="xtick_11">
     <g id="line2d_18">
      <g>
       <use xlink:href="#m691a354566" x="627.352941" y="384.48" style="stroke: #000000; stroke-width: 0.8"/>
      </g>
     </g>
     <g id="text_20">
      <!-- 800 -->
      <g transform="translate(617.809191 399.078438) scale(0.1 -0.1)">
       <use xlink:href="#DejaVuSans-38"/>
       <use xlink:href="#DejaVuSans-30" transform="translate(63.623047 0)"/>
       <use xlink:href="#DejaVuSans-30" transform="translate(127.246094 0)"/>
      </g>
     </g>
    </g>
    <g id="xtick_12">
     <g id="line2d_19">
      <g>
       <use xlink:href="#m691a354566" x="676.588235" y="384.48" style="stroke: #000000; stroke-width: 0.8"/>
      </g>
     </g>
     <g id="text_21">
      <!-- 1000 -->
      <g transform="translate(663.863235 399.078438) scale(0.1 -0.1)">
       <use xlink:href="#DejaVuSans-31"/>
       <use xlink:href="#DejaVuSans-30" transform="translate(63.623047 0)"/>
       <use xlink:href="#DejaVuSans-30" transform="translate(127.246094 0)"/>
       <use xlink:href="#DejaVuSans-30" transform="translate(190.869141 0)"/>
      </g>
     </g>
    </g>
    <g id="text_22">
     <!-- Tiempo, s -->
     <g transform="translate(529.25 412.756563) scale(0.1 -0.1)">
      <use xlink:href="#DejaVuSans-54"/>
      <use xlink:href="#DejaVuSans-69" transform="translate(57.958984 0)"/>
      <use xlink:href="#DejaVuSans-65" transform="translate(85.742188 0)"/>
      <use xlink:href="#DejaVuSans-6d" transform="translate(147.265625 0)"/>
      <use xlink:href="#DejaVuSans-70" transform="translate(244.677734 0)"/>
      <use xlink:href="#DejaVuSans-6f" transform="translate(308.154297 0)"/>
      <use xlink:href="#DejaVuSans-2c" transform="translate(369.335938 0)"/>
      <use xlink:href="#DejaVuSans-20" transform="translate(401.123047 0)"/>
      <use xlink:href="#DejaVuSans-73" transform="translate(432.910156 0)"/>
     </g>
    </g>
   </g>
   <g id="matplotlib.axis_4">
    <g id="ytick_7">
     <g id="line2d_20">
      <g>
       <use xlink:href="#mee3a9dc969" x="430.411765" y="384.48" style="stroke: #000000; stroke-width: 0.8"/>
      </g>
     </g>
     <g id="text_23">
      <!-- 3.2 -->
      <g transform="translate(407.50864 388.279219) scale(0.1 -0.1)">
       <use xlink:href="#DejaVuSans-33"/>
       <use xlink:href="#DejaVuSans-2e" transform="translate(63.623047 0)"/>
       <use xlink:href="#DejaVuSans-32" transform="translate(95.410156 0)"/>
      </g>
     </g>
    </g>
    <g id="ytick_8">
     <g id="line2d_21">
      <g>
       <use xlink:href="#mee3a9dc969" x="430.411765" y="317.952" style="stroke: #000000; stroke-width: 0.8"/>
      </g>
     </g>
     <g id="text_24">
      <!-- 3.4 -->
      <g transform="translate(407.50864 321.751219) scale(0.1 -0.1)">
       <use xlink:href="#DejaVuSans-33"/>
       <use xlink:href="#DejaVuSans-2e" transform="translate(63.623047 0)"/>
       <use xlink:href="#DejaVuSans-34" transform="translate(95.410156 0)"/>
      </g>
     </g>
    </g>
    <g id="ytick_9">
     <g id="line2d_22">
      <g>
       <use xlink:href="#mee3a9dc969" x="430.411765" y="251.424" style="stroke: #000000; stroke-width: 0.8"/>
      </g>
     </g>
     <g id="text_25">
      <!-- 3.6 -->
      <g transform="translate(407.50864 255.223219) scale(0.1 -0.1)">
       <use xlink:href="#DejaVuSans-33"/>
       <use xlink:href="#DejaVuSans-2e" transform="translate(63.623047 0)"/>
       <use xlink:href="#DejaVuSans-36" transform="translate(95.410156 0)"/>
      </g>
     </g>
    </g>
    <g id="ytick_10">
     <g id="line2d_23">
      <g>
       <use xlink:href="#mee3a9dc969" x="430.411765" y="184.896" style="stroke: #000000; stroke-width: 0.8"/>
      </g>
     </g>
     <g id="text_26">
      <!-- 3.8 -->
      <g transform="translate(407.50864 188.695219) scale(0.1 -0.1)">
       <use xlink:href="#DejaVuSans-33"/>
       <use xlink:href="#DejaVuSans-2e" transform="translate(63.623047 0)"/>
       <use xlink:href="#DejaVuSans-38" transform="translate(95.410156 0)"/>
      </g>
     </g>
    </g>
    <g id="ytick_11">
     <g id="line2d_24">
      <g>
       <use xlink:href="#mee3a9dc969" x="430.411765" y="118.368" style="stroke: #000000; stroke-width: 0.8"/>
      </g>
     </g>
     <g id="text_27">
      <!-- 4.0 -->
      <g transform="translate(407.50864 122.167219) scale(0.1 -0.1)">
       <use xlink:href="#DejaVuSans-34"/>
       <use xlink:href="#DejaVuSans-2e" transform="translate(63.623047 0)"/>
       <use xlink:href="#DejaVuSans-30" transform="translate(95.410156 0)"/>
      </g>
     </g>
    </g>
    <g id="ytick_12">
     <g id="line2d_25">
      <g>
       <use xlink:href="#mee3a9dc969" x="430.411765" y="51.84" style="stroke: #000000; stroke-width: 0.8"/>
      </g>
     </g>
     <g id="text_28">
      <!-- 4.2 -->
      <g transform="translate(407.50864 55.639219) scale(0.1 -0.1)">
       <use xlink:href="#DejaVuSans-34"/>
       <use xlink:href="#DejaVuSans-2e" transform="translate(63.623047 0)"/>
       <use xlink:href="#DejaVuSans-32" transform="translate(95.410156 0)"/>
      </g>
     </g>
    </g>
    <g id="text_29">
     <!-- Temperatura medida, $^{\circ} C$ -->
     <g transform="translate(401.40864 280.21) rotate(-90) scale(0.1 -0.1)">
      <use xlink:href="#DejaVuSans-54" transform="translate(0 0.015625)"/>
      <use xlink:href="#DejaVuSans-65" transform="translate(61.083984 0.015625)"/>
      <use xlink:href="#DejaVuSans-6d" transform="translate(122.607422 0.015625)"/>
      <use xlink:href="#DejaVuSans-70" transform="translate(220.019531 0.015625)"/>
      <use xlink:href="#DejaVuSans-65" transform="translate(283.496094 0.015625)"/>
      <use xlink:href="#DejaVuSans-72" transform="translate(345.019531 0.015625)"/>
      <use xlink:href="#DejaVuSans-61" transform="translate(386.132812 0.015625)"/>
      <use xlink:href="#DejaVuSans-74" transform="translate(447.412109 0.015625)"/>
      <use xlink:href="#DejaVuSans-75" transform="translate(486.621094 0.015625)"/>
      <use xlink:href="#DejaVuSans-72" transform="translate(550 0.015625)"/>
      <use xlink:href="#DejaVuSans-61" transform="translate(591.113281 0.015625)"/>
      <use xlink:href="#DejaVuSans-20" transform="translate(652.392578 0.015625)"/>
      <use xlink:href="#DejaVuSans-6d" transform="translate(684.179688 0.015625)"/>
      <use xlink:href="#DejaVuSans-65" transform="translate(781.591797 0.015625)"/>
      <use xlink:href="#DejaVuSans-64" transform="translate(843.115234 0.015625)"/>
      <use xlink:href="#DejaVuSans-69" transform="translate(906.591797 0.015625)"/>
      <use xlink:href="#DejaVuSans-64" transform="translate(934.375 0.015625)"/>
      <use xlink:href="#DejaVuSans-61" transform="translate(997.851562 0.015625)"/>
      <use xlink:href="#DejaVuSans-2c" transform="translate(1059.130859 0.015625)"/>
      <use xlink:href="#DejaVuSans-20" transform="translate(1090.917969 0.015625)"/>
      <use xlink:href="#DejaVuSans-2218" transform="translate(1123.662109 38.296875) scale(0.7)"/>
      <use xlink:href="#DejaVuSans-Oblique-43" transform="translate(1170.214844 0.015625)"/>
     </g>
    </g>
   </g>
   <g id="line2d_26">
    <path d="M 430.411765 142.699639 
L 434.116845 145.793221 
L 437.821925 148.886804 
L 441.527005 151.980386 
L 445.232086 155.073968 
L 448.937166 158.16755 
L 452.642246 161.261132 
L 456.347326 164.354714 
L 460.052406 167.448297 
L 463.757487 170.541879 
L 467.462567 173.635461 
L 471.167647 176.729043 
L 474.872727 179.822625 
L 478.577807 182.916207 
L 482.282888 186.00979 
L 485.987968 189.103372 
L 489.693048 192.196954 
L 493.398128 195.290536 
L 497.103209 198.384118 
L 500.808289 201.4777 
L 504.513369 204.571283 
L 508.218449 207.664865 
L 511.923529 210.758447 
L 515.62861 213.852029 
L 519.33369 216.945611 
L 523.03877 220.039193 
L 526.74385 223.132776 
L 530.44893 226.226358 
L 534.154011 229.31994 
L 537.859091 232.413522 
L 541.564171 235.507104 
L 545.269251 238.600686 
L 548.974332 241.694269 
L 552.679412 244.787851 
L 556.384492 247.881433 
L 560.089572 250.975015 
L 563.794652 254.068597 
L 567.499733 257.162179 
L 571.204813 260.255762 
L 574.909893 263.349344 
L 578.614973 266.442926 
L 582.320053 269.536508 
L 586.025134 272.63009 
L 589.730214 275.723672 
L 593.435294 278.817255 
L 597.140374 281.910837 
L 600.845455 285.004419 
L 604.550535 288.098001 
L 608.255615 291.191583 
L 611.960695 294.285165 
L 615.665775 297.378748 
L 619.370856 300.47233 
L 623.075936 303.565912 
L 626.781016 306.659494 
L 630.486096 309.753076 
L 634.191176 312.846658 
L 637.896257 315.940241 
L 641.601337 319.033823 
L 645.306417 322.127405 
L 649.011497 325.220987 
L 652.716578 328.314569 
L 656.421658 331.408151 
L 660.126738 334.501734 
L 663.831818 337.595316 
L 667.536898 340.688898 
L 671.241979 343.78248 
L 674.947059 346.876062 
L 678.652139 349.969644 
L 682.357219 353.063227 
L 686.062299 356.156809 
L 689.76738 359.250391 
L 693.47246 362.343973 
L 697.17754 365.437555 
L 700.88262 368.531137 
L 704.587701 371.62472 
L 708.292781 374.718302 
L 711.997861 377.811884 
L 715.702941 380.905466 
L 719.408021 383.999048 
L 723.113102 387.09263 
L 726.818182 390.186213 
L 730.523262 393.279795 
L 734.228342 396.373377 
L 737.933422 399.466959 
L 741.638503 402.560541 
L 745.343583 405.654123 
L 749.048663 408.747706 
L 752.753743 411.841288 
L 756.458824 414.93487 
L 760.163904 418.028452 
L 763.868984 421.122034 
L 767.574064 424.215616 
L 771.279144 427.309199 
L 774.984225 430.402781 
L 778.094827 433 
" clip-path="url(#p9682e8e154)" style="fill: none; stroke: #000000; stroke-linecap: square"/>
   </g>
   <g id="patch_8">
    <path d="M 430.411765 384.48 
L 430.411765 51.84 
" style="fill: none; stroke: #000000; stroke-width: 0.8; stroke-linejoin: miter; stroke-linecap: square"/>
   </g>
   <g id="patch_9">
    <path d="M 676.588235 384.48 
L 676.588235 51.84 
" style="fill: none; stroke: #000000; stroke-width: 0.8; stroke-linejoin: miter; stroke-linecap: square"/>
   </g>
   <g id="patch_10">
    <path d="M 430.411765 384.48 
L 676.588235 384.48 
" style="fill: none; stroke: #000000; stroke-width: 0.8; stroke-linejoin: miter; stroke-linecap: square"/>
   </g>
   <g id="patch_11">
    <path d="M 430.411765 51.84 
L 676.588235 51.84 
" style="fill: none; stroke: #000000; stroke-width: 0.8; stroke-linejoin: miter; stroke-linecap: square"/>
   </g>
   <g id="PathCollection_2">
    <defs>
     <path id="mf0ec3c0421" d="M -3 3 
L 3 -3 
M -3 -3 
L 3 3 
" style="stroke: #d84040; stroke-width: 1.5"/>
    </defs>
    <g clip-path="url(#p9682e8e154)">
     <use xlink:href="#mf0ec3c0421" x="430.411765" y="115.928689" style="fill: #d84040; stroke: #d84040; stroke-width: 1.5"/>
     <use xlink:href="#mf0ec3c0421" x="442.720588" y="134.586289" style="fill: #d84040; stroke: #d84040; stroke-width: 1.5"/>
     <use xlink:href="#mf0ec3c0421" x="455.029412" y="154.352896" style="fill: #d84040; stroke: #d84040; stroke-width: 1.5"/>
     <use xlink:href="#mf0ec3c0421" x="467.338235" y="168.214902" style="fill: #d84040; stroke: #d84040; stroke-width: 1.5"/>
     <use xlink:href="#mf0ec3c0421" x="479.647059" y="182.679789" style="fill: #d84040; stroke: #d84040; stroke-width: 1.5"/>
     <use xlink:href="#mf0ec3c0421" x="491.955882" y="196.258818" style="fill: #d84040; stroke: #d84040; stroke-width: 1.5"/>
     <use xlink:href="#mf0ec3c0421" x="504.264706" y="205.629578" style="fill: #d84040; stroke: #d84040; stroke-width: 1.5"/>
     <use xlink:href="#mf0ec3c0421" x="516.573529" y="221.859138" style="fill: #d84040; stroke: #d84040; stroke-width: 1.5"/>
     <use xlink:href="#mf0ec3c0421" x="528.882353" y="229.429023" style="fill: #d84040; stroke: #d84040; stroke-width: 1.5"/>
     <use xlink:href="#mf0ec3c0421" x="541.191176" y="246.894451" style="fill: #d84040; stroke: #d84040; stroke-width: 1.5"/>
     <use xlink:href="#mf0ec3c0421" x="553.5" y="256.90626" style="fill: #d84040; stroke: #d84040; stroke-width: 1.5"/>
     <use xlink:href="#mf0ec3c0421" x="565.808824" y="267.228781" style="fill: #d84040; stroke: #d84040; stroke-width: 1.5"/>
     <use xlink:href="#mf0ec3c0421" x="578.117647" y="276.89923" style="fill: #d84040; stroke: #d84040; stroke-width: 1.5"/>
     <use xlink:href="#mf0ec3c0421" x="590.426471" y="282.839387" style="fill: #d84040; stroke: #d84040; stroke-width: 1.5"/>
     <use xlink:href="#mf0ec3c0421" x="602.735294" y="289.90636" style="fill: #d84040; stroke: #d84040; stroke-width: 1.5"/>
     <use xlink:href="#mf0ec3c0421" x="615.044118" y="304.507325" style="fill: #d84040; stroke: #d84040; stroke-width: 1.5"/>
     <use xlink:href="#mf0ec3c0421" x="627.352941" y="313.147811" style="fill: #d84040; stroke: #d84040; stroke-width: 1.5"/>
     <use xlink:href="#mf0ec3c0421" x="639.661765" y="319.778728" style="fill: #d84040; stroke: #d84040; stroke-width: 1.5"/>
     <use xlink:href="#mf0ec3c0421" x="651.970588" y="333.450789" style="fill: #d84040; stroke: #d84040; stroke-width: 1.5"/>
     <use xlink:href="#mf0ec3c0421" x="664.279412" y="340.503492" style="fill: #d84040; stroke: #d84040; stroke-width: 1.5"/>
     <use xlink:href="#mf0ec3c0421" x="676.588235" y="348.925207" style="fill: #d84040; stroke: #d84040; stroke-width: 1.5"/>
     <use xlink:href="#mf0ec3c0421" x="688.897059" y="355.073996" style="fill: #d84040; stroke: #d84040; stroke-width: 1.5"/>
     <use xlink:href="#mf0ec3c0421" x="701.205882" y="365.154768" style="fill: #d84040; stroke: #d84040; stroke-width: 1.5"/>
     <use xlink:href="#mf0ec3c0421" x="713.514706" y="379.534374" style="fill: #d84040; stroke: #d84040; stroke-width: 1.5"/>
     <use xlink:href="#mf0ec3c0421" x="725.823529" y="390.397053" style="fill: #d84040; stroke: #d84040; stroke-width: 1.5"/>
     <use xlink:href="#mf0ec3c0421" x="738.132353" y="397.370894" style="fill: #d84040; stroke: #d84040; stroke-width: 1.5"/>
     <use xlink:href="#mf0ec3c0421" x="750.441176" y="405.937204" style="fill: #d84040; stroke: #d84040; stroke-width: 1.5"/>
     <use xlink:href="#mf0ec3c0421" x="762.75" y="413.248268" style="fill: #d84040; stroke: #d84040; stroke-width: 1.5"/>
     <use xlink:href="#mf0ec3c0421" x="775.058824" y="420.723638" style="fill: #d84040; stroke: #d84040; stroke-width: 1.5"/>
     <use xlink:href="#mf0ec3c0421" x="787.367647" y="431.479679" style="fill: #d84040; stroke: #d84040; stroke-width: 1.5"/>
    </g>
   </g>
   <g id="text_30">
    <!-- $r^2=$ 0.99197 $K=$0.000618 -->
    <g transform="translate(471.96 45.84) scale(0.12 -0.12)">
     <defs>
      <path id="DejaVuSans-37" d="M 525 4666 
L 3525 4666 
L 3525 4397 
L 1831 0 
L 1172 0 
L 2766 4134 
L 525 4134 
L 525 4666 
z
" transform="scale(0.015625)"/>
     </defs>
     <use xlink:href="#DejaVuSans-Oblique-72" transform="translate(0 0.765625)"/>
     <use xlink:href="#DejaVuSans-32" transform="translate(45.763177 39.046875) scale(0.7)"/>
     <use xlink:href="#DejaVuSans-3d" transform="translate(112.516107 0.765625)"/>
     <use xlink:href="#DejaVuSans-20" transform="translate(215.787591 0.765625)"/>
     <use xlink:href="#DejaVuSans-30" transform="translate(247.574701 0.765625)"/>
     <use xlink:href="#DejaVuSans-2e" transform="translate(311.197747 0.765625)"/>
     <use xlink:href="#DejaVuSans-39" transform="translate(342.984857 0.765625)"/>
     <use xlink:href="#DejaVuSans-39" transform="translate(406.607904 0.765625)"/>
     <use xlink:href="#DejaVuSans-31" transform="translate(470.230951 0.765625)"/>
     <use xlink:href="#DejaVuSans-39" transform="translate(533.853997 0.765625)"/>
     <use xlink:href="#DejaVuSans-37" transform="translate(597.477044 0.765625)"/>
     <use xlink:href="#DejaVuSans-20" transform="translate(661.100091 0.765625)"/>
     <use xlink:href="#DejaVuSans-Oblique-4b" transform="translate(692.887201 0.765625)"/>
     <use xlink:href="#DejaVuSans-3d" transform="translate(777.945794 0.765625)"/>
     <use xlink:href="#DejaVuSans-30" transform="translate(881.217279 0.765625)"/>
     <use xlink:href="#DejaVuSans-2e" transform="translate(944.840326 0.765625)"/>
     <use xlink:href="#DejaVuSans-30" transform="translate(976.627435 0.765625)"/>
     <use xlink:href="#DejaVuSans-30" transform="translate(1040.250482 0.765625)"/>
     <use xlink:href="#DejaVuSans-30" transform="translate(1103.873529 0.765625)"/>
     <use xlink:href="#DejaVuSans-36" transform="translate(1167.496576 0.765625)"/>
     <use xlink:href="#DejaVuSans-31" transform="translate(1231.119622 0.765625)"/>
     <use xlink:href="#DejaVuSans-38" transform="translate(1294.742669 0.765625)"/>
    </g>
   </g>
  </g>
  <g id="axes_3">
   <g id="patch_12">
    <path d="M 725.823529 384.48 
L 972 384.48 
L 972 51.84 
L 725.823529 51.84 
z
" style="fill: #ffffff"/>
   </g>
   <g id="FillBetweenPolyCollection_3">
    <path d="M 725.823529 73.519957 
L 725.823529 77.296732 
L 729.52861 79.913732 
L 733.23369 82.530303 
L 736.93877 85.146875 
L 740.64385 87.763446 
L 744.34893 90.380017 
L 748.054011 93.000054 
L 751.759091 95.620901 
L 755.464171 98.241747 
L 759.169251 100.862594 
L 762.874332 103.48344 
L 766.579412 106.104286 
L 770.284492 108.725133 
L 773.989572 111.345979 
L 777.694652 113.966772 
L 781.399733 116.587384 
L 785.104813 119.207996 
L 788.809893 121.828608 
L 792.514973 124.449696 
L 796.220053 127.070343 
L 799.925134 129.690752 
L 803.630214 132.311617 
L 807.335294 134.932482 
L 811.040374 137.553348 
L 814.745455 140.174213 
L 818.450535 142.795078 
L 822.155615 145.415943 
L 825.860695 148.036729 
L 829.565775 150.657396 
L 833.270856 153.278063 
L 836.975936 155.89876 
L 840.681016 158.520648 
L 844.386096 161.145626 
L 848.091176 163.768614 
L 851.796257 166.391628 
L 855.501337 169.006557 
L 859.206417 171.627551 
L 862.911497 174.247091 
L 866.616578 176.865442 
L 870.321658 179.486224 
L 874.026738 182.105763 
L 877.731818 184.727699 
L 881.436898 187.346549 
L 885.141979 189.97539 
L 888.847059 192.596646 
L 892.552139 195.214659 
L 896.257219 197.832695 
L 899.962299 200.457748 
L 903.66738 203.08196 
L 907.37246 205.708011 
L 911.07754 208.328129 
L 914.78262 210.960152 
L 918.487701 213.584619 
L 922.192781 216.218377 
L 925.897861 218.850321 
L 929.602941 221.473941 
L 933.308021 224.100226 
L 937.013102 226.730783 
L 940.718182 229.361304 
L 944.423262 231.999638 
L 948.128342 234.638434 
L 951.833422 237.277224 
L 955.538503 239.926751 
L 959.243583 242.577049 
L 962.948663 245.218975 
L 966.653743 247.860549 
L 970.358824 250.512277 
L 974.063904 253.171203 
L 977.768984 255.829756 
L 981.474064 258.471839 
L 985.179144 261.128409 
L 988.884225 263.785987 
L 992.589305 266.45178 
L 996.294385 269.108637 
L 999.999465 271.770377 
L 1003.704545 274.434736 
L 1007.409626 277.098951 
L 1011.114706 279.760772 
L 1014.819786 282.422589 
L 1018.524866 285.082377 
L 1022.229947 287.744159 
L 1025.935027 290.40551 
L 1029.640107 293.079161 
L 1033.345187 295.739106 
L 1037.050267 298.413379 
L 1040.755348 301.081837 
L 1044.460428 303.76288 
L 1048.165508 306.438407 
L 1051.870588 309.108731 
L 1055.575668 311.781806 
L 1059.280749 314.456224 
L 1062.985829 317.124559 
L 1066.690909 319.795396 
L 1070.395989 322.466537 
L 1074.10107 325.140183 
L 1077.80615 327.809077 
L 1081.51123 330.477706 
L 1085.21631 333.159497 
L 1088.92139 335.827811 
L 1092.626471 338.493817 
L 1092.626471 336.426752 
L 1092.626471 336.426752 
L 1088.92139 333.798615 
L 1085.21631 331.170361 
L 1081.51123 328.553635 
L 1077.80615 325.938203 
L 1074.10107 323.317796 
L 1070.395989 320.703439 
L 1066.690909 318.089727 
L 1062.985829 315.464774 
L 1059.280749 312.836962 
L 1055.575668 310.215745 
L 1051.870588 307.594655 
L 1048.165508 304.974497 
L 1044.460428 302.359277 
L 1040.755348 299.739846 
L 1037.050267 297.112128 
L 1033.345187 294.496942 
L 1029.640107 291.871136 
L 1025.935027 289.251129 
L 1022.229947 286.62565 
L 1018.524866 283.994688 
L 1014.819786 281.366207 
L 1011.114706 278.732363 
L 1007.409626 276.096699 
L 1003.704545 273.461011 
L 999.999465 270.830122 
L 996.294385 268.194251 
L 992.589305 265.553789 
L 988.884225 262.918072 
L 985.179144 260.274924 
L 981.474064 257.618659 
L 977.768984 254.978014 
L 974.063904 252.331471 
L 970.358824 249.689618 
L 966.653743 247.034823 
L 962.948663 244.361583 
L 959.243583 241.707664 
L 955.538503 239.044364 
L 951.833422 236.381121 
L 948.128342 233.716618 
L 944.423262 231.064614 
L 940.718182 228.399706 
L 937.013102 225.730115 
L 933.308021 223.064597 
L 929.602941 220.403864 
L 925.897861 217.736885 
L 922.192781 215.070215 
L 918.487701 212.409724 
L 914.78262 209.738648 
L 911.07754 207.073661 
L 907.37246 204.407046 
L 903.66738 201.732358 
L 899.962299 199.059751 
L 896.257219 196.397638 
L 892.552139 193.73772 
L 888.847059 191.073234 
L 885.141979 188.402518 
L 881.436898 185.725275 
L 877.731818 183.043457 
L 874.026738 180.375311 
L 870.321658 177.707261 
L 866.616578 175.035989 
L 862.911497 172.358615 
L 859.206417 169.689904 
L 855.501337 167.0229 
L 851.796257 164.357153 
L 848.091176 161.691407 
L 844.386096 159.019967 
L 840.681016 156.342512 
L 836.975936 153.664822 
L 833.270856 150.987257 
L 829.565775 148.312991 
L 825.860695 145.635712 
L 822.155615 142.962018 
L 818.450535 140.298772 
L 814.745455 137.635695 
L 811.040374 134.967044 
L 807.335294 132.297156 
L 803.630214 129.627269 
L 799.925134 126.957381 
L 796.220053 124.287493 
L 792.514973 121.618572 
L 788.809893 118.951845 
L 785.104813 116.277608 
L 781.399733 113.607493 
L 777.694652 110.937379 
L 773.989572 108.267265 
L 770.284492 105.597242 
L 766.579412 102.92734 
L 762.874332 100.257439 
L 759.169251 97.587537 
L 755.464171 94.916427 
L 751.759091 92.242095 
L 748.054011 89.571944 
L 744.34893 86.893041 
L 740.64385 84.218366 
L 736.93877 81.543692 
L 733.23369 78.869017 
L 729.52861 76.194394 
L 725.823529 73.519957 
z
" clip-path="url(#p2b64b04065)" style="fill-opacity: 0.15"/>
   </g>
   <g id="matplotlib.axis_5">
    <g id="xtick_13">
     <g id="line2d_27">
      <g>
       <use xlink:href="#m691a354566" x="725.823529" y="384.48" style="stroke: #000000; stroke-width: 0.8"/>
      </g>
     </g>
     <g id="text_31">
      <!-- 0 -->
      <g transform="translate(722.642279 399.078438) scale(0.1 -0.1)">
       <use xlink:href="#DejaVuSans-30"/>
      </g>
     </g>
    </g>
    <g id="xtick_14">
     <g id="line2d_28">
      <g>
       <use xlink:href="#m691a354566" x="775.058824" y="384.48" style="stroke: #000000; stroke-width: 0.8"/>
      </g>
     </g>
     <g id="text_32">
      <!-- 200 -->
      <g transform="translate(765.515074 399.078438) scale(0.1 -0.1)">
       <use xlink:href="#DejaVuSans-32"/>
       <use xlink:href="#DejaVuSans-30" transform="translate(63.623047 0)"/>
       <use xlink:href="#DejaVuSans-30" transform="translate(127.246094 0)"/>
      </g>
     </g>
    </g>
    <g id="xtick_15">
     <g id="line2d_29">
      <g>
       <use xlink:href="#m691a354566" x="824.294118" y="384.48" style="stroke: #000000; stroke-width: 0.8"/>
      </g>
     </g>
     <g id="text_33">
      <!-- 400 -->
      <g transform="translate(814.750368 399.078438) scale(0.1 -0.1)">
       <use xlink:href="#DejaVuSans-34"/>
       <use xlink:href="#DejaVuSans-30" transform="translate(63.623047 0)"/>
       <use xlink:href="#DejaVuSans-30" transform="translate(127.246094 0)"/>
      </g>
     </g>
    </g>
    <g id="xtick_16">
     <g id="line2d_30">
      <g>
       <use xlink:href="#m691a354566" x="873.529412" y="384.48" style="stroke: #000000; stroke-width: 0.8"/>
      </g>
     </g>
     <g id="text_34">
      <!-- 600 -->
      <g transform="translate(863.985662 399.078438) scale(0.1 -0.1)">
       <use xlink:href="#DejaVuSans-36"/>
       <use xlink:href="#DejaVuSans-30" transform="translate(63.623047 0)"/>
       <use xlink:href="#DejaVuSans-30" transform="translate(127.246094 0)"/>
      </g>
     </g>
    </g>
    <g id="xtick_17">
     <g id="line2d_31">
      <g>
       <use xlink:href="#m691a354566" x="922.764706" y="384.48" style="stroke: #000000; stroke-width: 0.8"/>
      </g>
     </g>
     <g id="text_35">
      <!-- 800 -->
      <g transform="translate(913.220956 399.078438) scale(0.1 -0.1)">
       <use xlink:href="#DejaVuSans-38"/>
       <use xlink:href="#DejaVuSans-30" transform="translate(63.623047 0)"/>
       <use xlink:href="#DejaVuSans-30" transform="translate(127.246094 0)"/>
      </g>
     </g>
    </g>
    <g id="xtick_18">
     <g id="line2d_32">
      <g>
       <use xlink:href="#m691a354566" x="972" y="384.48" style="stroke: #000000; stroke-width: 0.8"/>
      </g>
     </g>
     <g id="text_36">
      <!-- 1000 -->
      <g transform="translate(959.275 399.078438) scale(0.1 -0.1)">
       <use xlink:href="#DejaVuSans-31"/>
       <use xlink:href="#DejaVuSans-30" transform="translate(63.623047 0)"/>
       <use xlink:href="#DejaVuSans-30" transform="translate(127.246094 0)"/>
       <use xlink:href="#DejaVuSans-30" transform="translate(190.869141 0)"/>
      </g>
     </g>
    </g>
    <g id="text_37">
     <!-- Tiempo, s -->
     <g transform="translate(824.661765 412.756563) scale(0.1 -0.1)">
      <use xlink:href="#DejaVuSans-54"/>
      <use xlink:href="#DejaVuSans-69" transform="translate(57.958984 0)"/>
      <use xlink:href="#DejaVuSans-65" transform="translate(85.742188 0)"/>
      <use xlink:href="#DejaVuSans-6d" transform="translate(147.265625 0)"/>
      <use xlink:href="#DejaVuSans-70" transform="translate(244.677734 0)"/>
      <use xlink:href="#DejaVuSans-6f" transform="translate(308.154297 0)"/>
      <use xlink:href="#DejaVuSans-2c" transform="translate(369.335938 0)"/>
      <use xlink:href="#DejaVuSans-20" transform="translate(401.123047 0)"/>
      <use xlink:href="#DejaVuSans-73" transform="translate(432.910156 0)"/>
     </g>
    </g>
   </g>
   <g id="matplotlib.axis_6">
    <g id="ytick_13">
     <g id="line2d_33">
      <g>
       <use xlink:href="#mee3a9dc969" x="725.823529" y="384.48" style="stroke: #000000; stroke-width: 0.8"/>
      </g>
     </g>
     <g id="text_38">
      <!-- 3.2 -->
      <g transform="translate(702.920404 388.279219) scale(0.1 -0.1)">
       <use xlink:href="#DejaVuSans-33"/>
       <use xlink:href="#DejaVuSans-2e" transform="translate(63.623047 0)"/>
       <use xlink:href="#DejaVuSans-32" transform="translate(95.410156 0)"/>
      </g>
     </g>
    </g>
    <g id="ytick_14">
     <g id="line2d_34">
      <g>
       <use xlink:href="#mee3a9dc969" x="725.823529" y="317.952" style="stroke: #000000; stroke-width: 0.8"/>
      </g>
     </g>
     <g id="text_39">
      <!-- 3.4 -->
      <g transform="translate(702.920404 321.751219) scale(0.1 -0.1)">
       <use xlink:href="#DejaVuSans-33"/>
       <use xlink:href="#DejaVuSans-2e" transform="translate(63.623047 0)"/>
       <use xlink:href="#DejaVuSans-34" transform="translate(95.410156 0)"/>
      </g>
     </g>
    </g>
    <g id="ytick_15">
     <g id="line2d_35">
      <g>
       <use xlink:href="#mee3a9dc969" x="725.823529" y="251.424" style="stroke: #000000; stroke-width: 0.8"/>
      </g>
     </g>
     <g id="text_40">
      <!-- 3.6 -->
      <g transform="translate(702.920404 255.223219) scale(0.1 -0.1)">
       <use xlink:href="#DejaVuSans-33"/>
       <use xlink:href="#DejaVuSans-2e" transform="translate(63.623047 0)"/>
       <use xlink:href="#DejaVuSans-36" transform="translate(95.410156 0)"/>
      </g>
     </g>
    </g>
    <g id="ytick_16">
     <g id="line2d_36">
      <g>
       <use xlink:href="#mee3a9dc969" x="725.823529" y="184.896" style="stroke: #000000; stroke-width: 0.8"/>
      </g>
     </g>
     <g id="text_41">
      <!-- 3.8 -->
      <g transform="translate(702.920404 188.695219) scale(0.1 -0.1)">
       <use xlink:href="#DejaVuSans-33"/>
       <use xlink:href="#DejaVuSans-2e" transform="translate(63.623047 0)"/>
       <use xlink:href="#DejaVuSans-38" transform="translate(95.410156 0)"/>
      </g>
     </g>
    </g>
    <g id="ytick_17">
     <g id="line2d_37">
      <g>
       <use xlink:href="#mee3a9dc969" x="725.823529" y="118.368" style="stroke: #000000; stroke-width: 0.8"/>
      </g>
     </g>
     <g id="text_42">
      <!-- 4.0 -->
      <g transform="translate(702.920404 122.167219) scale(0.1 -0.1)">
       <use xlink:href="#DejaVuSans-34"/>
       <use xlink:href="#DejaVuSans-2e" transform="translate(63.623047 0)"/>
       <use xlink:href="#DejaVuSans-30" transform="translate(95.410156 0)"/>
      </g>
     </g>
    </g>
    <g id="ytick_18">
     <g id="line2d_38">
      <g>
       <use xlink:href="#mee3a9dc969" x="725.823529" y="51.84" style="stroke: #000000; stroke-width: 0.8"/>
      </g>
     </g>
     <g id="text_43">
      <!-- 4.2 -->
      <g transform="translate(702.920404 55.639219) scale(0.1 -0.1)">
       <use xlink:href="#DejaVuSans-34"/>
       <use xlink:href="#DejaVuSans-2e" transform="translate(63.623047 0)"/>
       <use xlink:href="#DejaVuSans-32" transform="translate(95.410156 0)"/>
      </g>
     </g>
    </g>
    <g id="text_44">
     <!-- Temperatura medida, $^{\circ} C$ -->
     <g transform="translate(696.820404 280.21) rotate(-90) scale(0.1 -0.1)">
      <use xlink:href="#DejaVuSans-54" transform="translate(0 0.015625)"/>
      <use xlink:href="#DejaVuSans-65" transform="translate(61.083984 0.015625)"/>
      <use xlink:href="#DejaVuSans-6d" transform="translate(122.607422 0.015625)"/>
      <use xlink:href="#DejaVuSans-70" transform="translate(220.019531 0.015625)"/>
      <use xlink:href="#DejaVuSans-65" transform="translate(283.496094 0.015625)"/>
      <use xlink:href="#DejaVuSans-72" transform="translate(345.019531 0.015625)"/>
      <use xlink:href="#DejaVuSans-61" transform="translate(386.132812 0.015625)"/>
      <use xlink:href="#DejaVuSans-74" transform="translate(447.412109 0.015625)"/>
      <use xlink:href="#DejaVuSans-75" transform="translate(486.621094 0.015625)"/>
      <use xlink:href="#DejaVuSans-72" transform="translate(550 0.015625)"/>
      <use xlink:href="#DejaVuSans-61" transform="translate(591.113281 0.015625)"/>
      <use xlink:href="#DejaVuSans-20" transform="translate(652.392578 0.015625)"/>
      <use xlink:href="#DejaVuSans-6d" transform="translate(684.179688 0.015625)"/>
      <use xlink:href="#DejaVuSans-65" transform="translate(781.591797 0.015625)"/>
      <use xlink:href="#DejaVuSans-64" transform="translate(843.115234 0.015625)"/>
      <use xlink:href="#DejaVuSans-69" transform="translate(906.591797 0.015625)"/>
      <use xlink:href="#DejaVuSans-64" transform="translate(934.375 0.015625)"/>
      <use xlink:href="#DejaVuSans-61" transform="translate(997.851562 0.015625)"/>
      <use xlink:href="#DejaVuSans-2c" transform="translate(1059.130859 0.015625)"/>
      <use xlink:href="#DejaVuSans-20" transform="translate(1090.917969 0.015625)"/>
      <use xlink:href="#DejaVuSans-2218" transform="translate(1123.662109 38.296875) scale(0.7)"/>
      <use xlink:href="#DejaVuSans-Oblique-43" transform="translate(1170.214844 0.015625)"/>
     </g>
    </g>
   </g>
   <g id="line2d_39">
    <path d="M 725.823529 75.32135 
L 729.52861 77.969161 
L 733.23369 80.616971 
L 736.93877 83.264782 
L 740.64385 85.912592 
L 744.34893 88.560403 
L 748.054011 91.208213 
L 751.759091 93.856024 
L 755.464171 96.503835 
L 759.169251 99.151645 
L 762.874332 101.799456 
L 766.579412 104.447266 
L 770.284492 107.095077 
L 773.989572 109.742887 
L 777.694652 112.390698 
L 781.399733 115.038509 
L 785.104813 117.686319 
L 788.809893 120.33413 
L 792.514973 122.98194 
L 796.220053 125.629751 
L 799.925134 128.277561 
L 803.630214 130.925372 
L 807.335294 133.573182 
L 811.040374 136.220993 
L 814.745455 138.868804 
L 818.450535 141.516614 
L 822.155615 144.164425 
L 825.860695 146.812235 
L 829.565775 149.460046 
L 833.270856 152.107856 
L 836.975936 154.755667 
L 840.681016 157.403478 
L 844.386096 160.051288 
L 848.091176 162.699099 
L 851.796257 165.346909 
L 855.501337 167.99472 
L 859.206417 170.64253 
L 862.911497 173.290341 
L 866.616578 175.938151 
L 870.321658 178.585962 
L 874.026738 181.233773 
L 877.731818 183.881583 
L 881.436898 186.529394 
L 885.141979 189.177204 
L 888.847059 191.825015 
L 892.552139 194.472825 
L 896.257219 197.120636 
L 899.962299 199.768447 
L 903.66738 202.416257 
L 907.37246 205.064068 
L 911.07754 207.711878 
L 914.78262 210.359689 
L 918.487701 213.007499 
L 922.192781 215.65531 
L 925.897861 218.30312 
L 929.602941 220.950931 
L 933.308021 223.598742 
L 937.013102 226.246552 
L 940.718182 228.894363 
L 944.423262 231.542173 
L 948.128342 234.189984 
L 951.833422 236.837794 
L 955.538503 239.485605 
L 959.243583 242.133416 
L 962.948663 244.781226 
L 966.653743 247.429037 
L 970.358824 250.076847 
L 974.063904 252.724658 
L 977.768984 255.372468 
L 981.474064 258.020279 
L 985.179144 260.668089 
L 988.884225 263.3159 
L 992.589305 265.963711 
L 996.294385 268.611521 
L 999.999465 271.259332 
L 1003.704545 273.907142 
L 1007.409626 276.554953 
L 1011.114706 279.202763 
L 1014.819786 281.850574 
L 1018.524866 284.498385 
L 1022.229947 287.146195 
L 1025.935027 289.794006 
L 1029.640107 292.441816 
L 1033.345187 295.089627 
L 1037.050267 297.737437 
L 1040.755348 300.385248 
L 1044.460428 303.033058 
L 1048.165508 305.680869 
L 1051.870588 308.32868 
L 1055.575668 310.97649 
L 1059.280749 313.624301 
L 1062.985829 316.272111 
L 1066.690909 318.919922 
L 1070.395989 321.567732 
L 1074.10107 324.215543 
L 1077.80615 326.863354 
L 1081 329.145817 
" clip-path="url(#p2b64b04065)" style="fill: none; stroke: #000000; stroke-linecap: square"/>
   </g>
   <g id="patch_13">
    <path d="M 725.823529 384.48 
L 725.823529 51.84 
" style="fill: none; stroke: #000000; stroke-width: 0.8; stroke-linejoin: miter; stroke-linecap: square"/>
   </g>
   <g id="patch_14">
    <path d="M 972 384.48 
L 972 51.84 
" style="fill: none; stroke: #000000; stroke-width: 0.8; stroke-linejoin: miter; stroke-linecap: square"/>
   </g>
   <g id="patch_15">
    <path d="M 725.823529 384.48 
L 972 384.48 
" style="fill: none; stroke: #000000; stroke-width: 0.8; stroke-linejoin: miter; stroke-linecap: square"/>
   </g>
   <g id="patch_16">
    <path d="M 725.823529 51.84 
L 972 51.84 
" style="fill: none; stroke: #000000; stroke-width: 0.8; stroke-linejoin: miter; stroke-linecap: square"/>
   </g>
   <g id="PathCollection_3">
    <defs>
     <path id="m1af1f2aed6" d="M -3 3 
L 3 -3 
M -3 -3 
L 3 3 
" style="stroke: #a31d1d; stroke-width: 1.5"/>
    </defs>
    <g clip-path="url(#p2b64b04065)">
     <use xlink:href="#m1af1f2aed6" x="725.823529" y="61.384904" style="fill: #a31d1d; stroke: #a31d1d; stroke-width: 1.5"/>
     <use xlink:href="#m1af1f2aed6" x="738.132353" y="75.006713" style="fill: #a31d1d; stroke: #a31d1d; stroke-width: 1.5"/>
     <use xlink:href="#m1af1f2aed6" x="750.441176" y="86.431286" style="fill: #a31d1d; stroke: #a31d1d; stroke-width: 1.5"/>
     <use xlink:href="#m1af1f2aed6" x="762.75" y="98.836249" style="fill: #a31d1d; stroke: #a31d1d; stroke-width: 1.5"/>
     <use xlink:href="#m1af1f2aed6" x="775.058824" y="111.721804" style="fill: #a31d1d; stroke: #a31d1d; stroke-width: 1.5"/>
     <use xlink:href="#m1af1f2aed6" x="787.367647" y="121.416916" style="fill: #a31d1d; stroke: #a31d1d; stroke-width: 1.5"/>
     <use xlink:href="#m1af1f2aed6" x="799.676471" y="131.403107" style="fill: #a31d1d; stroke: #a31d1d; stroke-width: 1.5"/>
     <use xlink:href="#m1af1f2aed6" x="811.985294" y="141.698397" style="fill: #a31d1d; stroke: #a31d1d; stroke-width: 1.5"/>
     <use xlink:href="#m1af1f2aed6" x="824.294118" y="150.975811" style="fill: #a31d1d; stroke: #a31d1d; stroke-width: 1.5"/>
     <use xlink:href="#m1af1f2aed6" x="836.602941" y="160.519417" style="fill: #a31d1d; stroke: #a31d1d; stroke-width: 1.5"/>
     <use xlink:href="#m1af1f2aed6" x="848.911765" y="168.9234" style="fill: #a31d1d; stroke: #a31d1d; stroke-width: 1.5"/>
     <use xlink:href="#m1af1f2aed6" x="861.220588" y="176.81814" style="fill: #a31d1d; stroke: #a31d1d; stroke-width: 1.5"/>
     <use xlink:href="#m1af1f2aed6" x="873.529412" y="184.904814" style="fill: #a31d1d; stroke: #a31d1d; stroke-width: 1.5"/>
     <use xlink:href="#m1af1f2aed6" x="885.838235" y="192.430927" style="fill: #a31d1d; stroke: #a31d1d; stroke-width: 1.5"/>
     <use xlink:href="#m1af1f2aed6" x="898.147059" y="200.131271" style="fill: #a31d1d; stroke: #a31d1d; stroke-width: 1.5"/>
     <use xlink:href="#m1af1f2aed6" x="910.455882" y="208.014105" style="fill: #a31d1d; stroke: #a31d1d; stroke-width: 1.5"/>
     <use xlink:href="#m1af1f2aed6" x="922.764706" y="216.90659" style="fill: #a31d1d; stroke: #a31d1d; stroke-width: 1.5"/>
     <use xlink:href="#m1af1f2aed6" x="935.073529" y="223.52651" style="fill: #a31d1d; stroke: #a31d1d; stroke-width: 1.5"/>
     <use xlink:href="#m1af1f2aed6" x="947.382353" y="231.134872" style="fill: #a31d1d; stroke: #a31d1d; stroke-width: 1.5"/>
     <use xlink:href="#m1af1f2aed6" x="959.691176" y="239.797862" style="fill: #a31d1d; stroke: #a31d1d; stroke-width: 1.5"/>
     <use xlink:href="#m1af1f2aed6" x="972" y="248.69251" style="fill: #a31d1d; stroke: #a31d1d; stroke-width: 1.5"/>
     <use xlink:href="#m1af1f2aed6" x="984.308824" y="258.759413" style="fill: #a31d1d; stroke: #a31d1d; stroke-width: 1.5"/>
     <use xlink:href="#m1af1f2aed6" x="996.617647" y="267.228781" style="fill: #a31d1d; stroke: #a31d1d; stroke-width: 1.5"/>
     <use xlink:href="#m1af1f2aed6" x="1008.926471" y="277.881919" style="fill: #a31d1d; stroke: #a31d1d; stroke-width: 1.5"/>
     <use xlink:href="#m1af1f2aed6" x="1021.235294" y="285.849725" style="fill: #a31d1d; stroke: #a31d1d; stroke-width: 1.5"/>
     <use xlink:href="#m1af1f2aed6" x="1033.544118" y="297.126737" style="fill: #a31d1d; stroke: #a31d1d; stroke-width: 1.5"/>
     <use xlink:href="#m1af1f2aed6" x="1045.852941" y="304.507325" style="fill: #a31d1d; stroke: #a31d1d; stroke-width: 1.5"/>
     <use xlink:href="#m1af1f2aed6" x="1058.161765" y="310.966557" style="fill: #a31d1d; stroke: #a31d1d; stroke-width: 1.5"/>
     <use xlink:href="#m1af1f2aed6" x="1070.470588" y="319.778728" style="fill: #a31d1d; stroke: #a31d1d; stroke-width: 1.5"/>
     <use xlink:href="#m1af1f2aed6" x="1082.779412" y="327.685654" style="fill: #a31d1d; stroke: #a31d1d; stroke-width: 1.5"/>
    </g>
   </g>
   <g id="text_45">
    <!-- $r^2=$ 0.99741 $K=$0.000529 -->
    <g transform="translate(767.491765 45.84) scale(0.12 -0.12)">
     <defs>
      <path id="DejaVuSans-35" d="M 691 4666 
L 3169 4666 
L 3169 4134 
L 1269 4134 
L 1269 2991 
Q 1406 3038 1543 3061 
Q 1681 3084 1819 3084 
Q 2600 3084 3056 2656 
Q 3513 2228 3513 1497 
Q 3513 744 3044 326 
Q 2575 -91 1722 -91 
Q 1428 -91 1123 -41 
Q 819 9 494 109 
L 494 744 
Q 775 591 1075 516 
Q 1375 441 1709 441 
Q 2250 441 2565 725 
Q 2881 1009 2881 1497 
Q 2881 1984 2565 2268 
Q 2250 2553 1709 2553 
Q 1456 2553 1204 2497 
Q 953 2441 691 2322 
L 691 4666 
z
" transform="scale(0.015625)"/>
     </defs>
     <use xlink:href="#DejaVuSans-Oblique-72" transform="translate(0 0.765625)"/>
     <use xlink:href="#DejaVuSans-32" transform="translate(45.763177 39.046875) scale(0.7)"/>
     <use xlink:href="#DejaVuSans-3d" transform="translate(112.516107 0.765625)"/>
     <use xlink:href="#DejaVuSans-20" transform="translate(215.787591 0.765625)"/>
     <use xlink:href="#DejaVuSans-30" transform="translate(247.574701 0.765625)"/>
     <use xlink:href="#DejaVuSans-2e" transform="translate(311.197747 0.765625)"/>
     <use xlink:href="#DejaVuSans-39" transform="translate(342.984857 0.765625)"/>
     <use xlink:href="#DejaVuSans-39" transform="translate(406.607904 0.765625)"/>
     <use xlink:href="#DejaVuSans-37" transform="translate(470.230951 0.765625)"/>
     <use xlink:href="#DejaVuSans-34" transform="translate(533.853997 0.765625)"/>
     <use xlink:href="#DejaVuSans-31" transform="translate(597.477044 0.765625)"/>
     <use xlink:href="#DejaVuSans-20" transform="translate(661.100091 0.765625)"/>
     <use xlink:href="#DejaVuSans-Oblique-4b" transform="translate(692.887201 0.765625)"/>
     <use xlink:href="#DejaVuSans-3d" transform="translate(777.945794 0.765625)"/>
     <use xlink:href="#DejaVuSans-30" transform="translate(881.217279 0.765625)"/>
     <use xlink:href="#DejaVuSans-2e" transform="translate(944.840326 0.765625)"/>
     <use xlink:href="#DejaVuSans-30" transform="translate(976.627435 0.765625)"/>
     <use xlink:href="#DejaVuSans-30" transform="translate(1040.250482 0.765625)"/>
     <use xlink:href="#DejaVuSans-30" transform="translate(1103.873529 0.765625)"/>
     <use xlink:href="#DejaVuSans-35" transform="translate(1167.496576 0.765625)"/>
     <use xlink:href="#DejaVuSans-32" transform="translate(1231.119622 0.765625)"/>
     <use xlink:href="#DejaVuSans-39" transform="translate(1292.992669 0.765625)"/>
    </g>
   </g>
  </g>
 </g>
 <defs>
  <clipPath id="p0969d249fd">
   <rect x="135" y="51.84" width="246.176471" height="332.64"/>
  </clipPath>
  <clipPath id="p9682e8e154">
   <rect x="430.411765" y="51.84" width="246.176471" height="332.64"/>
  </clipPath>
  <clipPath id="p2b64b04065">
   <rect x="725.823529" y="51.84" width="246.176471" height="332.64"/>
  </clipPath>
 </defs>
</svg>
